<?xml version="1.0" encoding="utf-8"?>
<!-- Generator: Adobe Illustrator 14.0.0, SVG Export Plug-In . SVG Version: 6.00 Build 43363)  -->
<!DOCTYPE svg PUBLIC "-//W3C//DTD SVG 1.1//EN" "http://www.w3.org/Graphics/SVG/1.1/DTD/svg11.dtd">
<svg version="1.1" xmlns="http://www.w3.org/2000/svg" xmlns:xlink="http://www.w3.org/1999/xlink" x="0px" y="0px"
	 width="62.984px" height="63.276px" viewBox="0 0 62.984 63.276" enable-background="new 0 0 62.984 63.276" xml:space="preserve">
<g id="Layer_1">
	<path fill="none" stroke="#000000" stroke-width="2" stroke-linecap="round" stroke-linejoin="round" d="M42.125,23.486
		c0-2.474,0-10.068,0-10.068H30.778h-9.919c0,0,0,7.595,0,10.068s1.736,7.861,8.506,9.963c0,0.02,0,12.692,0,12.692
		s-7.031,1.562-7.031,3.212c0,0.521,0,0.521,0,0.521h8.984h0.347h8.983c0,0,0,0,0-0.521c0-1.649-7.03-3.212-7.03-3.212
		s0-12.673,0-12.692C40.39,31.348,42.125,25.96,42.125,23.486z"/>
</g>
<g id="Layer_2">
</g>
</svg>
