<?xml version="1.0" encoding="utf-8"?>
<!-- Generator: Adobe Illustrator 18.1.1, SVG Export Plug-In . SVG Version: 6.00 Build 0)  -->
<svg version="1.1" id="Layer_1" xmlns="http://www.w3.org/2000/svg" xmlns:xlink="http://www.w3.org/1999/xlink" x="0px" y="0px"
	 viewBox="0 0 358.5 391.5" enable-background="new 0 0 358.5 391.5" xml:space="preserve">
<text transform="matrix(1.0572 0 0 1 158.3725 243.4745)" fill="#B66EAD" font-family="'Geometria-Light'" font-size="108.3115">D</text>
<g>
	<g>
		<path fill="#84CDB9" d="M43,228.9c16.5-23.7,32.9-47.3,49.4-71c26.2-37.7,52.4-75.4,78.6-113c6-8.6,11.9-17.1,17.9-25.7
			c1.8-2.6-2.5-5.2-4.3-2.5c-16.5,23.7-32.9,47.3-49.4,71c-26.2,37.7-52.4,75.4-78.6,113c-6,8.6-11.9,17.1-17.9,25.7
			C36.8,229,41.1,231.5,43,228.9L43,228.9z"/>
	</g>
</g>
<g>
	<g>
		<path fill="#85CDB9" d="M184.9,19.6c17.9,21.9,35.7,43.8,53.6,65.7c28.3,34.7,56.7,69.5,85,104.2c6.5,8,13,15.9,19.5,23.9
			c2,2.5,5.6-1.1,3.5-3.5c-17.9-21.9-35.7-43.8-53.6-65.7c-28.3-34.7-56.7-69.5-85-104.2c-6.5-8-13-15.9-19.5-23.9
			C186.4,13.6,182.9,17.1,184.9,19.6L184.9,19.6z"/>
	</g>
</g>
<g>
	<g>
		<path fill="#85CDB9" d="M346,209.5c-11.1-5-22.1-10-33.2-15c-26.6-12-53.1-24-79.7-36.1c-32.2-14.5-64.3-29.1-96.5-43.6
			C108.8,102.2,81,89.6,53.2,77.1c-9.2-4.2-18.4-8.3-27.6-12.5c-4.3-1.9-8.6-4.4-13-5.9c-0.2-0.1-0.4-0.2-0.6-0.3
			c-2.9-1.3-5.5,3-2.5,4.3c11.1,5,22.1,10,33.2,15c26.6,12,53.1,24,79.7,36.1c32.2,14.5,64.3,29.1,96.5,43.6
			c27.8,12.6,55.6,25.2,83.5,37.8c9.2,4.2,18.4,8.3,27.6,12.5c4.3,1.9,8.6,4.4,13,5.9c0.2,0.1,0.4,0.2,0.6,0.3
			C346.4,215.2,349,210.9,346,209.5L346,209.5z"/>
	</g>
</g>
<g>
	<g>
		<path fill="#84CDB9" d="M8.9,62.3c8.7,10.6,17.3,21.2,26,31.7c20.9,25.5,41.9,51.1,62.8,76.6c25.2,30.8,50.5,61.6,75.7,92.3
			c21.9,26.7,43.8,53.4,65.7,80.1c7.2,8.8,14.4,17.5,21.6,26.3c3.3,4.1,6.5,8.8,10.2,12.5c0.2,0.2,0.3,0.4,0.5,0.6
			c2,2.5,5.6-1.1,3.5-3.5c-8.7-10.6-17.3-21.2-26-31.7c-20.9-25.5-41.9-51.1-62.8-76.6c-25.2-30.8-50.5-61.6-75.7-92.3
			c-21.9-26.7-43.8-53.4-65.7-80.1c-7.2-8.8-14.4-17.5-21.6-26.3c-3.3-4.1-6.5-8.8-10.2-12.5c-0.2-0.2-0.3-0.4-0.5-0.6
			C10.4,56.3,6.9,59.8,8.9,62.3L8.9,62.3z"/>
	</g>
</g>
<g>
	<g>
		<path fill="#84CDB9" d="M275.6,381.4c2.4-11.6,4.7-23.1,7.1-34.7c5.7-27.8,11.4-55.6,17.1-83.3c6.9-33.8,13.8-67.6,20.8-101.4
			c6-29.1,11.9-58.1,17.9-87.2c2-9.6,3.9-19.1,5.9-28.7c0.9-4.5,2.4-9.2,2.8-13.8c0-0.2,0.1-0.4,0.1-0.6c0.6-3.1-4.2-4.5-4.8-1.3
			c-2.4,11.6-4.7,23.1-7.1,34.7c-5.7,27.8-11.4,55.6-17.1,83.3c-6.9,33.8-13.8,67.6-20.8,101.4c-6,29.1-11.9,58.1-17.9,87.2
			c-2,9.6-3.9,19.1-5.9,28.7c-0.9,4.5-2.4,9.2-2.8,13.8c0,0.2-0.1,0.4-0.1,0.6C270.1,383.2,274.9,384.5,275.6,381.4L275.6,381.4z"/>
	</g>
</g>
<g>
	<g>
		<path fill="#84CDB9" d="M343.5,28.8c-10.1,6.5-20.2,13-30.2,19.5c-24.2,15.7-48.4,31.3-72.6,47c-29.3,18.9-58.5,37.9-87.8,56.8
			c-25.3,16.4-50.6,32.7-75.9,49.1c-8.3,5.4-16.7,10.8-25,16.2c-3.9,2.5-8.3,4.8-11.9,7.7c-0.2,0.1-0.3,0.2-0.5,0.3
			c-2.7,1.7-0.2,6.1,2.5,4.3c10.1-6.5,20.2-13,30.2-19.5c24.2-15.7,48.4-31.3,72.6-47c29.3-18.9,58.5-37.9,87.8-56.8
			c25.3-16.4,50.6-32.7,75.9-49.1c8.3-5.4,16.7-10.8,25-16.2c3.9-2.5,8.3-4.8,11.9-7.7c0.2-0.1,0.3-0.2,0.5-0.3
			C348.7,31.4,346.2,27.1,343.5,28.8L343.5,28.8z"/>
	</g>
</g>
<g>
	<text transform="matrix(1.1072 0 0 1 195.8017 318.5595)" fill="#B66EAD" font-family="'Geometria-Light'" font-size="115">T</text>
	<text transform="matrix(0.9766 0 0 1 219.8222 281.4814)" fill="#B56DAD" font-family="'Geometria-Light'" font-size="115">I</text>
</g>
</svg>
