<?xml version="1.0" encoding="utf-8"?>
<!-- Generator: Adobe Illustrator 14.0.0, SVG Export Plug-In . SVG Version: 6.00 Build 43363)  -->
<!DOCTYPE svg PUBLIC "-//W3C//DTD SVG 1.1//EN" "http://www.w3.org/Graphics/SVG/1.1/DTD/svg11.dtd">
<svg version="1.1" xmlns="http://www.w3.org/2000/svg" xmlns:xlink="http://www.w3.org/1999/xlink" x="0px" y="0px"
	 width="62.984px" height="63.276px" viewBox="0 0 62.984 63.276" enable-background="new 0 0 62.984 63.276" xml:space="preserve">
<g id="Layer_1">
	<path fill="none" stroke="#000000" stroke-width="2" stroke-linecap="square" stroke-linejoin="round" d="M31.57,56.085
		c-10.729-0.062-14.922-6.413-14.922-12.344c0-9.445,0-25.014,0-25.014s-0.05-3.161,2.988-3.161c3.093,0,2.7,3.171,2.7,3.171v11.378
		V12.501c0,0,0.158-2.686,2.637-2.68c3.052,0.005,3.052,2.674,3.052,2.674v16.471V8.776c0,0,0.145-2.211,2.827-2.211
		s2.824,2.211,2.824,2.211v4.491v17.04V13.231c0,0,0-2.37,3.161-2.37c2.577,0,2.683,2.406,2.683,2.502
		c0,0.095,0.084,22.705,0.084,22.705s1.917-5.065,2.329-6.161c1.972-5.228,5.506-3.207,6.369-2.537c0,0-1.577,4.669-2.102,6.63
		c-0.722,3.737-0.853,6.302-0.863,9.741C45.338,43.741,45.94,56.085,31.57,56.085z"/>
	<g>
		<path fill="none" stroke="#000000" stroke-width="2" stroke-linecap="square" stroke-linejoin="round" d="M21.249,42.416
			c0,0,8.25-10.565,18.816,0C29.499,52.983,21.249,42.416,21.249,42.416z"/>
		
			<circle fill="none" stroke="#000000" stroke-width="2" stroke-linecap="square" stroke-linejoin="round" cx="30.657" cy="41.838" r="3.474"/>
	</g>
</g>
<g id="Layer_2">
</g>
</svg>
