<?xml version="1.0" encoding="utf-8"?>
<!-- Generator: Adobe Illustrator 14.0.0, SVG Export Plug-In . SVG Version: 6.00 Build 43363)  -->
<!DOCTYPE svg PUBLIC "-//W3C//DTD SVG 1.1//EN" "http://www.w3.org/Graphics/SVG/1.1/DTD/svg11.dtd">
<svg version="1.1" xmlns="http://www.w3.org/2000/svg" xmlns:xlink="http://www.w3.org/1999/xlink" x="0px" y="0px"
	 width="62.984px" height="63.276px" viewBox="0 0 62.984 63.276" enable-background="new 0 0 62.984 63.276" xml:space="preserve">
<g id="Layer_1">
	<g>
		<path fill="none" stroke="#000000" stroke-width="2" d="M32.868,24.895c1.305-0.537,2.224-1.819,2.224-3.317
			c0-1.981-1.605-3.587-3.587-3.587c-1.981,0-3.587,1.605-3.587,3.587c0,1.505,0.928,2.792,2.242,3.324"/>
		<path fill="none" stroke="#000000" stroke-width="2" d="M46.484,29.367c0.318,0.093,0.655,0.145,1.004,0.145
			c1.981,0,3.588-1.605,3.588-3.587s-1.606-3.588-3.588-3.588c-1.98,0-3.587,1.606-3.587,3.588c0,0.962,0.381,1.834,0.997,2.479"/>
		<path fill="none" stroke="#000000" stroke-width="2" d="M18.262,28.395c0.612-0.643,0.99-1.512,0.99-2.47
			c0-1.981-1.606-3.588-3.587-3.588s-3.587,1.606-3.587,3.588s1.606,3.587,3.587,3.587c0.345,0,0.678-0.051,0.994-0.142"/>
		<path fill="none" stroke="#000000" stroke-width="2" d="M44.898,28.403l-7.6,7.273l-4.431-10.782
			c-0.42,0.173-0.88,0.27-1.363,0.27c-0.476,0-0.93-0.095-1.346-0.263l-4.327,10.691l-7.57-7.198
			c-0.433,0.455-0.983,0.796-1.604,0.976l4.251,14.732h21.274l4.301-14.735C45.871,29.188,45.328,28.852,44.898,28.403z"/>
	</g>
</g>
<g id="Layer_2">
</g>
</svg>
