<?xml version="1.0" encoding="utf-8"?>
<!-- Generator: Adobe Illustrator 14.0.0, SVG Export Plug-In . SVG Version: 6.00 Build 43363)  -->
<!DOCTYPE svg PUBLIC "-//W3C//DTD SVG 1.1//EN" "http://www.w3.org/Graphics/SVG/1.1/DTD/svg11.dtd">
<svg version="1.1" id="Layer_1" xmlns="http://www.w3.org/2000/svg" xmlns:xlink="http://www.w3.org/1999/xlink" x="0px" y="0px"
	 width="435.086px" height="106.061px" viewBox="0 0 435.086 106.061" enable-background="new 0 0 435.086 106.061"
	 xml:space="preserve">
<g>
	<g>
		<path d="M23.335,25.348h10.56c8.32,0,14.4,2.32,19.521,7.36s7.84,11.84,7.84,19.439c0,7.28-2.8,14.16-7.84,19.12
			c-5.12,5.121-11.28,7.44-19.521,7.44h-10.56V25.348z M33.815,75.509c13.92,0,23.841-9.76,23.841-23.44
			c0-13.841-9.84-23.521-23.841-23.521h-7.04v46.961H33.815z"/>
		<path d="M73.502,61.188l-7.121,17.521h-3.84l22.4-54.962l22.241,54.962h-3.92l-7.04-17.521H73.502z M84.942,32.708l-10.16,25.279
			h20.161L84.942,32.708z"/>
		<path d="M118.862,78.709h-3.44V25.348h3.44V78.709z"/>
		<path d="M136.701,75.509h13.521v3.2h-16.96V25.348h3.44L136.701,75.509L136.701,75.509z"/>
		<path d="M148.784,25.348h4l15.2,26.801l15.601-26.801h4.08l-18,30.562v22.8h-3.44v-22.8L148.784,25.348z"/>
		<path d="M227.024,78.709h-3.441V28.548h-13.68v-3.2h31.041v3.2h-13.92V78.709L227.024,78.709z"/>
		<path d="M250.293,61.188l-7.121,17.521h-3.84l22.4-54.962l22.24,54.962h-3.92l-7.039-17.521H250.293z M261.733,32.708
			l-10.16,25.279h20.16L261.733,32.708z"/>
		<path d="M318.614,78.709h-4.24l-17.121-25.2h-1.6v25.2h-3.439V25.348h7.521c11.041,0,16.642,4.8,16.642,14.161
			c0,5.68-2.562,10.24-7.041,12.399c-2,0.96-4.16,1.359-8.16,1.601L318.614,78.709z M300.772,50.308c7.682,0,12.082-4,12.082-10.879
			c0-7.281-4.24-10.881-12.801-10.881h-4.4v21.76H300.772z"/>
		<path d="M399.899,78.709h-3.439V28.548h-13.682v-3.2h31.041v3.2h-13.92V78.709L399.899,78.709z"/>
	</g>
	<g>
		<path stroke="#000000" stroke-width="0.5" d="M23.335,25.348h10.56c8.32,0,14.4,2.32,19.521,7.36s7.84,11.84,7.84,19.439
			c0,7.28-2.8,14.16-7.84,19.12c-5.12,5.121-11.28,7.44-19.521,7.44h-10.56V25.348z M33.815,75.509
			c13.92,0,23.841-9.76,23.841-23.44c0-13.841-9.84-23.521-23.841-23.521h-7.04v46.961H33.815z"/>
		<path stroke="#000000" stroke-width="0.5" d="M73.502,61.188l-7.121,17.521h-3.84l22.4-54.962l22.241,54.962h-3.92l-7.04-17.521
			H73.502z M84.942,32.708l-10.16,25.279h20.161L84.942,32.708z"/>
		<path stroke="#000000" stroke-width="0.5" d="M118.862,78.709h-3.44V25.348h3.44V78.709z"/>
		<path stroke="#000000" stroke-width="0.5" d="M136.701,75.509h13.521v3.2h-16.96V25.348h3.44L136.701,75.509L136.701,75.509z"/>
		<path stroke="#000000" stroke-width="0.5" d="M148.784,25.348h4l15.2,26.801l15.601-26.801h4.08l-18,30.562v22.8h-3.44v-22.8
			L148.784,25.348z"/>
		<path stroke="#000000" stroke-width="0.5" d="M227.024,78.709h-3.441V28.548h-13.68v-3.2h31.041v3.2h-13.92V78.709L227.024,78.709
			z"/>
		<path stroke="#000000" stroke-width="0.5" d="M250.293,61.188l-7.121,17.521h-3.84l22.4-54.962l22.24,54.962h-3.92l-7.039-17.521
			H250.293z M261.733,32.708l-10.16,25.279h20.16L261.733,32.708z"/>
		<path stroke="#000000" stroke-width="0.5" d="M318.614,78.709h-4.24l-17.121-25.2h-1.6v25.2h-3.439V25.348h7.521
			c11.041,0,16.642,4.8,16.642,14.161c0,5.68-2.562,10.24-7.041,12.399c-2,0.96-4.16,1.359-8.16,1.601L318.614,78.709z
			 M300.772,50.308c7.682,0,12.082-4,12.082-10.879c0-7.281-4.24-10.881-12.801-10.881h-4.4v21.76H300.772z"/>
		<path stroke="#000000" stroke-width="0.5" d="M399.899,78.709h-3.439V28.548h-13.682v-3.2h31.041v3.2h-13.92V78.709
			L399.899,78.709z"/>
	</g>
	<g>
		<path fill="none" stroke="#000000" d="M23.335,25.348h10.56c8.32,0,14.4,2.32,19.521,7.36s7.84,11.84,7.84,19.439
			c0,7.28-2.8,14.16-7.84,19.12c-5.12,5.121-11.28,7.44-19.521,7.44h-10.56V25.348z M33.815,75.509
			c13.92,0,23.841-9.76,23.841-23.44c0-13.841-9.84-23.521-23.841-23.521h-7.04v46.961H33.815z"/>
		<path fill="none" stroke="#000000" d="M73.502,61.188l-7.121,17.521h-3.84l22.4-54.962l22.241,54.962h-3.92l-7.04-17.521H73.502z
			 M84.942,32.708l-10.16,25.279h20.161L84.942,32.708z"/>
		<path fill="none" stroke="#000000" d="M118.862,78.709h-3.44V25.348h3.44V78.709z"/>
		<path fill="none" stroke="#000000" d="M136.701,75.509h13.521v3.2h-16.96V25.348h3.44L136.701,75.509L136.701,75.509z"/>
		<path fill="none" stroke="#000000" d="M148.784,25.348h4l15.2,26.801l15.601-26.801h4.08l-18,30.562v22.8h-3.44v-22.8
			L148.784,25.348z"/>
		<path fill="none" stroke="#000000" d="M227.024,78.709h-3.441V28.548h-13.68v-3.2h31.041v3.2h-13.92V78.709L227.024,78.709z"/>
		<path fill="none" stroke="#000000" d="M250.293,61.188l-7.121,17.521h-3.84l22.4-54.962l22.24,54.962h-3.92l-7.039-17.521H250.293
			z M261.733,32.708l-10.16,25.279h20.16L261.733,32.708z"/>
		<path fill="none" stroke="#000000" d="M318.614,78.709h-4.24l-17.121-25.2h-1.6v25.2h-3.439V25.348h7.521
			c11.041,0,16.642,4.8,16.642,14.161c0,5.68-2.562,10.24-7.041,12.399c-2,0.96-4.16,1.359-8.16,1.601L318.614,78.709z
			 M300.772,50.308c7.682,0,12.082-4,12.082-10.879c0-7.281-4.24-10.881-12.801-10.881h-4.4v21.76H300.772z"/>
		<path fill="none" stroke="#000000" d="M399.899,78.709h-3.439V28.548h-13.682v-3.2h31.041v3.2h-13.92V78.709L399.899,78.709z"/>
	</g>
</g>
<g>
	<path d="M326.895,43.55c-0.924,2.656-1.434,5.507-1.434,8.478c0,4.128,0.976,8.025,2.699,11.485l6.557-11.956L326.895,43.55z"/>
	<path d="M361.459,75.711c5.91-2.551,10.671-7.25,13.311-13.112l-8.566-3.463L361.459,75.711z"/>
	<polygon points="370.337,37.421 362.881,42.505 367.172,48.479 	"/>
	<path d="M375.67,60.308c0.882-2.6,1.367-5.383,1.367-8.28c0-5.46-1.701-10.52-4.597-14.688l-3.78,13.209L375.67,60.308z"/>
	<polygon points="360.061,42.007 349.952,27.936 339.866,46.328 348.563,49.846 	"/>
	<path d="M348.522,26.385c-9.282,0.977-17.092,6.878-20.779,15.042l10.256,4.146L348.522,26.385z"/>
	<path d="M370.507,34.884c-4.723-5.302-11.599-8.644-19.258-8.644c-0.018,0-0.034,0.001-0.052,0.001l10.516,14.639L370.507,34.884z"
		/>
	<path d="M329.273,65.418c-0.016,0.011-0.034,0.014-0.051,0.023c4.528,7.42,12.699,12.374,22.027,12.374
		c2.759,0,5.414-0.438,7.906-1.24L340.668,57.65L329.273,65.418z"/>
	<polygon points="350.792,50.747 364.892,56.448 366.471,50.93 361.228,43.632 	"/>
	<polygon points="367.959,53 366.756,57.202 372.706,59.608 	"/>
	<polygon points="342.346,56.505 359.77,74.342 364.338,58.382 348.805,52.101 	"/>
	<polygon points="337.03,47.34 331.018,44.908 335.723,49.724 	"/>
	<polygon points="338.897,48.095 337.183,51.22 340.926,55.052 346.577,51.199 	"/>
	<polygon points="331.591,61.417 339.249,56.197 336.178,53.053 	"/>
</g>
</svg>
