<?xml version="1.0" encoding="utf-8"?>
<!-- Generator: Adobe Illustrator 18.1.1, SVG Export Plug-In . SVG Version: 6.00 Build 0)  -->
<svg version="1.1" id="Layer_1" xmlns="http://www.w3.org/2000/svg" xmlns:xlink="http://www.w3.org/1999/xlink" x="0px" y="0px"
	 viewBox="0 0 337 557" enable-background="new 0 0 337 557" xml:space="preserve">
<g>
	<g>
		<path fill="#FAF9F8" d="M338,278c0,91,0,181.9,0.1,272.9c0,3.2-0.3,4.2-4,4.2c-109.8-0.1-219.6-0.1-329.4,0
			c-3.3,0-3.8-0.9-3.8-3.9C1,369.1,1,187,0.9,4.9c0-3.7,1.2-3.9,4.3-3.9C114.8,1,224.4,1,334.1,0.9c3.5,0,4,0.8,4,4.2
			C338,96,338,187,338,278z"/>
		<path fill="#75EAE9" d="M153,537.8c-44,0-88,0.1-131.9,0.2c-3,0-4.1-1.1-4.1-4.1c0.1-22.3,0.1-44.6,0.2-67
			c0.7-1.8,0.4-3.6,0.4-5.4c0.1-28.4-0.2-56.8,0.1-85.2c1.8-1.6,3-0.5,4.1,0.9c1.3,2.8,0.9,5.9,0.9,8.9c0,45.7,0,91.3,0,137
			c0,2.6-0.4,5.3,0.8,7.9c1.6,1.9,3.9,1.6,6,1.6c12.3,0,24.6,0.2,36.9,0c27.1-0.6,54.2,1.2,81.3,1.1c1.7,0,3.3-0.1,4.9,0.8
			C153.9,535.4,153.9,536.6,153,537.8z"/>
		<path fill="#D3F996" d="M320.9,19c0,55,0,110,0,165c-1.7,1.6-1.4,3.6-1.4,5.6c0,13.8,0,27.6,0,41.4c0,2,0.2,4-0.6,5.9
			c-0.3,0.6-0.7,1.1-1.3,1.3c-0.7-0.1-1.2-0.5-1.5-1.2c-0.9-1.9-0.8-3.9-0.8-5.9c0-28.9,0-57.8,0-86.6c0-1.8,0.1-3.7,0.4-5.5
			c0.6-2.1,0.8-4.2,0.8-6.4c0-34.1,0-68.2,0-102.3c0-2.1,0.3-4.4-1.7-6c-2.6-1.1-5.3-0.7-7.9-0.7c-37.1,0-74.2,0-111.3,0
			c-2.9,0-6,0.5-8.7-1.3c-1.8-4.3,1.3-3.8,3.8-3.8c15.8,0,31.6,0,47.3,0c2.3,0,4.6,0.5,6.9-0.5c11.7,0,23.4,0,35,0
			c7.9,1.1,15.8,0.2,23.7,0.5C309.4,18.8,315.2,18,320.9,19z"/>
		<path fill="#80ECDE" d="M18,376c0,28.4,0,56.8,0,85.2c0,1.9-0.5,3.8-0.8,5.7c0-24.9-0.1-49.9-0.1-74.8c0-31.4,0.1-62.8,0.1-94.2
			c0.9-11.6,0.2-23.2,0.4-34.8c0.1-3.4,0.8-5.1,4.1-2.2c1,1.8,1,3.8,1,5.8c0,13.7,0,27.4,0,41.1c0,2,0,4-0.9,5.8
			c-1.7,1.7-2.3,3.7-2.3,6.2c0.1,9.4,0.1,18.9,0,28.3c0.1,7.2,0,14.5,0,21.7C19.5,372.1,19.6,374.3,18,376z"/>
		<path fill="#8BEED5" d="M21,261c-3.6-1.8-2.9,1.1-2.9,2.9c-0.1,9.6,0,19.2-0.1,28.8c0,1.7-0.5,3.5-0.8,5.2c0-28.3,0-56.6,0-84.9
			c3.3,0.8,3.9,3.9,5.1,6.4c0.8,12.5,0.3,25,0.3,37.5C22.5,258.4,22.2,259.9,21,261z"/>
		<path fill="#CDF89B" d="M318,238c0-16.5,0-33,0-49.5c0-2.1-0.7-4.7,2.9-4.5c0,18,0,36,0,54C319.9,238.8,319,238.9,318,238z"/>
		<path fill="#CEF89B" d="M245,18c-1.7,0.3-3.5,0.9-5.2,0.9c-16.1,0.1-32.2,0-48.4,0.1c-2.1,0-4.6-0.5-4.4,3
			c-0.7,0.8-1.6,1.3-2.6,1.4c-7.4,0.1-14.9,1.4-22.3-0.9c-1.1-1.1-1.1-2.3-0.4-3.5c6.3-1,12.5-0.1,18.8-0.4c1.8-0.1,3.6,0.5,5.4-0.5
			C205.7,18,225.3,18,245,18z"/>
		<path fill="#8EEED2" d="M21,218c-1.3-1.6-2.6-3.3-3.8-4.9c0-24,0-48,0-72c0.6-0.3,1.1-0.1,1.5,0.5c1.2,2.3,0.7,4.7,0.8,7.1
			c0.1,7.7,0.1,15.4,0,23.1c0,5.9,0.2,11.9,0,17.8c-0.1,3,0.6,5.5,2.4,7.7C22.6,204.2,24,211.2,21,218z"/>
		<path fill="#C7F7A1" d="M318,238c1,0,1.9,0,2.9,0c0,14.3,0,28.7,0,43c-1.3,0.9-2.4,0.9-3.5-0.4c-1-1.8-0.8-3.8-0.8-5.8
			c0-10.2,0-20.5,0-30.7C316.6,242,316.4,239.8,318,238z"/>
		<path fill="#C0F6A7" d="M318,281c1,0,1.9,0,2.9,0c0,13.3,0,26.7,0,40c-1.2,0.9-2.3,0.9-3.4-0.2c-1.7-3.6-0.6-7.4-0.9-11.2
			c0-7.5,0-15.1,0-22.6C316.6,284.9,316.2,282.7,318,281z"/>
		<path fill="#78EBE5" d="M153,537.8c0-0.9,0-1.9,0-2.8c0.9-1.1,2.3-1.3,3.6-1.4c10.2-0.1,20.5-0.2,30.7,0.1c0.8,0,1.6,0.3,2.4,0.7
			c1.3,1,1.3,2.2,0.4,3.5C177.7,537.9,165.3,537.9,153,537.8z"/>
		<path fill="#BAF5AC" d="M318,321c1,0,1.9,0,2.9,0c0,11.3,0,22.7,0,34c-1.3,0.9-2.4,0.9-3.5-0.3c-1.7-5.2-0.6-10.5-0.8-15.7
			c-0.2-4.3-0.1-8.6,0-12.9C316.6,324.3,316.5,322.4,318,321z"/>
		<path fill="#8BEED5" d="M287,537.9c-10.7,0-21.3,0-32,0c-0.9-1.2-0.9-2.3,0.3-3.4c5.9-1.8,11.9-0.5,17.8-0.9c2.2-0.1,4.3,0,6.5,0
			c2.4,0.2,5-0.4,7.3,1C287.9,535.6,287.9,536.7,287,537.9z"/>
		<path fill="#7FECDF" d="M190,537.9c0-0.9,0-1.9,0-2.8c0.4-0.5,1-1,1.6-1.1c9.7-0.4,19.4-1.2,29,0.4c1.3,1,1.2,2.2,0.4,3.5
			C210.7,537.9,200.3,537.9,190,537.9z"/>
		<path fill="#A3F1C0" d="M320.9,451c0,9.3,0,18.6,0,28c-1.8,0.5-3-0.2-3.8-1.8c-0.6-8.7-1.2-17.3,0.4-25.9
			C318.5,450.1,319.7,450.1,320.9,451z"/>
		<path fill="#9DF1C5" d="M318,478c0.9,0.3,1.9,0.6,2.8,1c0,8.7,0,17.4,0,26c-1.2,0.9-2.4,0.9-3.4-0.3
			C316.4,495.8,315.3,486.8,318,478z"/>
		<path fill="#B5F4B1" d="M318,355c1,0,1.9,0,2.9,0c0,9,0,18,0,27c-1.7,0.5-2.9-0.1-3.8-1.6c-1.1-4.5-0.3-9-0.6-13.5
			C317.1,362.9,315.3,358.7,318,355z"/>
		<path fill="#82ECDC" d="M255,535c0,0.9,0,1.9,0,2.8c-8.3,0-16.7,0-25,0c-0.9-1.2-0.9-2.4,0.3-3.4C238.6,533.4,246.8,532.3,255,535
			z"/>
		<path fill="#94EFCD" d="M18,141c-0.3,0-0.6,0-0.9,0c0-24.7,0-49.3,0-74c0.7-0.2,1.2-0.1,1.5,0.6c1.7,5.5,0.4,11.1,0.8,16.7
			c0,7.6,0.1,15.1,0,22.7c0,7,0.1,14,0,21C18.9,132.3,20.9,136.9,18,141z"/>
		<path fill="#A8F2BC" d="M320.9,451c-0.9,0-1.9,0-2.8,0c-1.8-1.7-1.3-4-1.4-6.1c0.3-6-0.6-12.1,0.6-18.1c1.3-2,2.5-0.8,3.7,0.2
			C320.9,435,320.9,443,320.9,451z"/>
		<path fill="#B0F4B5" d="M318,381c1,0.3,1.9,0.6,2.9,1c0,7.7,0,15.4,0,23c-1.2,0.9-2.4,0.9-3.4-0.3
			C316.4,396.8,315.4,388.8,318,381z"/>
		<path fill="#98F0C9" d="M318,505c0.9,0,1.9,0,2.8,0c0,7.7,0,15.3,0,23c-1.9,1-2.9-0.1-3.8-1.6c-1-6.1-0.4-12.2-0.4-18.3
			C316.7,506.9,317.1,505.8,318,505z"/>
		<path fill="#ACF3B8" d="M318,405c1,0,1.9,0,2.9,0c0,7.3,0,14.7,0,22c-1-0.3-1.9-0.7-2.9-1C315.7,419,315.7,412,318,405z"/>
		<path fill="#94EFCD" d="M318,527c0.9,0.3,1.9,0.7,2.8,1c0.4,10.1,0.4,10.1-9.5,10c-1.1,0-2.3-0.1-3.4-0.1c-1.4-0.8-2-1.9-0.8-3.3
			c0.3-0.2,0.6-0.5,0.8-0.4C313.3,534.5,317.1,532.8,318,527z"/>
		<path fill="#90EED1" d="M307,535c0.3,1,0.6,1.9,1,2.9c-7,0-14,0-21,0c0-1,0-1.9,0-2.9C293.7,532.8,300.3,532.7,307,535z"/>
		<path fill="#9AF0C8" d="M18,67l-0.4,0c0,0-0.4,0-0.4,0c0-14.9,0-29.8-0.2-44.7c-0.1-3.6,1.3-4.7,4.6-4.4c2.5,0.2,5,0.1,7.5,0.1
			c0.3,0.6,0.2,1-0.3,1.4c-0.4,0.2-0.9,0.4-1.3,0.6c-2.4,1.1-6.1-1.2-7.6,1.9c-1.1,2.3-0.2,5.1-0.4,7.7c0,0.7,0,1.3,0,2
			c0.1,9,0.1,18,0,27.1C19.2,61.6,20.3,64.6,18,67z"/>
		<path fill="#BAF5AC" d="M186,18c-4.9,0.3-9.7,0.7-14.6,0.9c-3.1,0.1-6.3,0-9.4,0c-2.2,2-4.9,1.4-7.5,1.5c-4.4,0-8.8,0.1-13.2,0
			c-4.6-0.3-9.3,0.9-13.9-0.8c-0.6-0.4-0.8-0.9-0.5-1.6C146.7,18,166.3,18,186,18z"/>
		<path fill="#DAFB90" d="M320.9,19c-11.9,0-23.8,0-35.7,0c-1.7,0-3.4-0.6-5.2-0.9c12.4,0,24.9-0.1,37.3-0.1
			C318.5,18,319.7,18.6,320.9,19z"/>
		<path fill="#A2F2C0" d="M29,19c0-0.3,0-0.6,0-0.9c11.7,0,23.3,0,35,0c0.3,0.6,0.2,1.1-0.4,1.5c-1.3,0.9-2.9,0.8-4.4,0.9
			c-8,0.1-16,0.1-24,0C33,20.4,30.7,20.9,29,19z"/>
		<path fill="#AAF3B9" d="M64,19c0-0.3,0-0.6,0-1c10.7,0,21.3,0,32,0c0.3,0.6,0.1,1.2-0.4,1.6c-2.9,1.5-6,0.7-9.1,0.9
			c-5.6,0.1-11.3,0-16.9,0C67.6,20.5,65.5,20.7,64,19z"/>
		<path fill="#B2F4B3" d="M96,19c0-0.3,0-0.6,0-1c10.3,0,20.7,0,31,0c0,0.3,0,0.6,0,1c-4.1,2.9-8.7,0.9-13.1,1.5
			c-4.1,0.1-8.3,0-12.4,0C99.6,20.5,97.5,20.7,96,19z"/>
		<path fill="#82ECDD" d="M230,535c0,0.9,0,1.9,0,2.8c-3,0-6,0-9,0c0-0.9,0-1.9,0-2.8C224,533,227,533,230,535z"/>
		<path fill="#FAF9F8" d="M21,218c0-7,0-14,0-21c-1.9-2.6-1.4-5.7-1.5-8.6c0-5.1,0-10.2,0-15.3c0-8.3-0.1-16.6,0-25
			c0-6.7-0.1-13.4,0-20.1c0-6.7-0.1-13.4,0-20c0-8-0.1-16,0-24c0-8-0.1-16,0-24c0-9.7-0.1-19.3,0-29c-0.1-10.4,0-10.5,10.4-10.5
			c1.7,0,3.3,0,5,0c8.7,0,17.4-0.1,26.1,0c8.7,0,17.3-0.1,26,0c9,0,18,0,27,0c9,0,18,0,27,0c5.1,0,10.3,0,15.4,0c2,0,4,0,5.6,1.5
			c8.3,0,16.7,0,25,0c43.3,0,86.6,0,129.8,0.1c1,0.9,0.6,2.2,0.6,3.3c0,37.1,0,74.1,0,111.2c0,0.8,0,1.7-0.4,2.4c0,33,0,66,0,99.1
			c0.8,4.1,0.3,8.3,0.3,12.4c0.1,19.8,0,39.7,0,59.5c0,19,0,38,0,57.1c0,26,0,52,0,78c0,27.8,0,55.6,0,83.4c0,5.5,0,5.6-5.5,5.6
			c-28,0-55.9,0-83.9,0c-12.8,0-25.6,0-38.4,0c-54.7,0.2-109.5-0.9-164.2-0.5c-1.4,0-3,0.5-4.3-0.6c0-49.8,0-99.6,0-149.3
			c0-2.2-0.1-4.3-0.1-6.5c-1.4-2-1.5-4.3-1.5-6.7c0.1-7.4,0-14.9,0-22.3c0-9.3,0-18.6,0-27.9c0-2.1-0.2-4.4,1.4-6.1
			c0-17.7,0-35.3,0-53C21,246.7,21,232.3,21,218z"/>
		<path fill="#95EFD1" d="M21.1,532.8c2.3,0.1,4.6,0.2,7,0.2c64.5,0,129,0,193.6,0.1c2.2,0,4.3,0.1,6.5,0.1
			c15.8,0.7,31.6,0.1,47.4,0.4c1.5,0,3.8-1.3,4.5,1.4c-8.4,0-16.7,0-25.1,0.1c-8.3,0-16.7,0-25,0c-3,0-6,0-9,0c-10.3,0-20.7,0-31,0
			c-12.3,0-24.7,0-37,0c-25.3-0.3-50.6-0.7-75.9-1c-17-0.2-34,0-51-0.1C24.5,533.9,22.8,533.2,21.1,532.8z"/>
		<path fill="#77EBE6" d="M20.9,348c0,9.7,0,19.3,0,29c-1-0.3-2-0.7-2.9-1c0-9.3,0-18.7,0-28C19,347.2,20,347.2,20.9,348z"/>
		<path fill="#D9FB90" d="M317.1,138.9c0-36.6-0.1-73.3-0.1-109.9c0-2.3-0.1-4.7-0.2-7c0.4,1.5,1.1,3,1.1,4.6
			c0.1,36,0.1,72.1,0,108.1C318,136.1,317.4,137.5,317.1,138.9z"/>
		<path fill="#CDF89B" d="M317.1,310c0-24,0-48,0-72c0.3,0,0.6,0,0.9,0c0,14.3,0,28.7,0,43c0,9.7,0,19.3,0,29
			C317.7,310.4,317.4,310.5,317.1,310z"/>
		<path fill="#7BEBE3" d="M20.9,348c-1,0-2,0-2.9,0c0-9.9,0-19.8,0-29.6c0-2.1-0.5-4.6,2.9-4.4C21,325.3,21,336.7,20.9,348z"/>
		<path fill="#CDF89C" d="M162,22c-7,0-14,0-21,0c-0.8-1-0.8-2,0-3c7,0,14,0,21,0C162,20,162,21,162,22z"/>
		<path fill="#97F0CA" d="M21,148c0,8.3,0,16.7,0,25c-1.5,1.1-2.2,0.1-3-1c0-8,0-16,0-24C19,147.2,20,147.2,21,148z"/>
		<path fill="#92EFCF" d="M18,172c1,0.3,2,0.7,3,1c0,8,0,16,0,24c-1-1.7-2.7-3.3-2.8-5C17.8,185.3,18,178.7,18,172z"/>
		<path fill="#9BF0C7" d="M21,148c-1,0-2,0-3,0c0-2.3,0-4.7,0-7c0-4.3,0-8.7,0-13c1-0.8,2-0.8,3,0C21,134.7,21,141.3,21,148z"/>
		<path fill="#CAF89E" d="M317.1,310c0.3,0,0.6,0,0.9,0c0,3.7,0,7.3,0,11c0,11.3,0,22.7,0,34c0,4,0,8,0,12c-0.3,0.5-0.6,0.5-0.9,0
			C317.1,348,317.1,329,317.1,310z"/>
		<path fill="#BEF6A8" d="M280,535c-1.7-0.3-3.5-0.9-5.2-0.9c-13.8-0.1-27.6,0-41.4-0.1c-1.8,0-3.5-0.5-5.3-0.7
			c27.6-0.1,55.2-0.3,82.8,0c5.2,0,6.3-1.5,6.2-6.4c-0.2-27.3,0-54.5,0-81.8c0.3-0.4,0.6-0.5,0.9,0c0,2,0,4,0.1,6c0,9,0,18,0,27
			c0,9,0,18,0,27c0,7.3,0,14.7,0,22c-0.1,7.9-0.1,7.9-11,8c-6.7,0-13.3,0-20,0C284.7,535,282.4,535,280,535z"/>
		<path fill="#C5F7A2" d="M318,445c-0.3,0-0.6,0-0.9,0c0-26,0-52,0-78c0.3,0,0.6,0,0.9,0c0,4.7,0,9.3,0,14c0,8,0,16,0,24
			c0,7,0,14,0,21C318,432.3,318,438.7,318,445z"/>
		<path fill="#A8F2BC" d="M21,60c0,8,0,16,0,24c-1,0.8-2,0.8-3,0c0-5.7,0-11.3,0-17c0-2.7,0-5.3,0-8C19.4,58.2,20.1,59.2,21,60z"/>
		<path fill="#A3F2C0" d="M18,84c1,0,2,0,3,0c0,8,0,16,0,24c-1.5,1.1-2.2,0.1-3-1C18,99.3,18,91.7,18,84z"/>
		<path fill="#9FF1C3" d="M18,107c1,0.3,2,0.7,3,1c0,6.7,0,13.3,0,20c-1,0-2,0-3,0C18,121,18,114,18,107z"/>
		<path fill="#ADF3B7" d="M21,60c-1-0.3-2-0.7-3-1c0-9.3,0-18.7,0-28c1-0.8,2-0.8,3,0C21,40.7,21,50.3,21,60z"/>
		<path fill="#B2F4B3" d="M21,31c-1,0-2,0-3,0c0-0.3,0-0.7,0-1c0-11,0-11,11-11c2,0,4,0,6,0c0.8,1,0.8,2,0,2.9c-2.8,0-5.7,0.3-8.5,0
			c-4.4-0.5-6.2,1.1-5.5,5.5C21.2,28.6,21,29.8,21,31z"/>
		<path fill="#C8F7A0" d="M141,19c0,1,0,2,0,3c-9,0-18,0-27,0c-0.8-1-0.8-2,0-3c4.3,0,8.7,0,13,0C131.7,19,136.3,19,141,19z"/>
		<path fill="#BEF6A9" d="M87,22c-8.7,0-17.3,0-26,0c-0.8-0.8-1.8-1.6-1-3c1.3,0,2.7,0,4,0c7.7,0,15.3,0,23,0C87.8,20,87.8,21,87,22
			z"/>
		<path fill="#B8F5AE" d="M60,19c0.3,1,0.7,2,1,3c-8.7,0-17.3,0-26,0c0-1,0-2,0-3C43.3,19,51.7,19,60,19z"/>
		<path fill="#C3F7A4" d="M87,22c0-1,0-2,0-3c3,0,6,0,9,0c6,0,12,0,18,0c0,1,0,2,0,3C105,22,96,22,87,22z"/>
		<path fill="#77EBE7" d="M153,519.9c-37,0.1-74,0.1-111,0.2c-4.1,0-5.1-2-5.1-5.6C37,478,37,441.5,37,405c0.9-1.6,0.5-3.3,0.5-4.9
			c0-12.2,0.2-24.3,0-36.5c-0.2-17.3,0.8-34.6,0.5-51.9c0-1.2-0.1-2.3,0.2-3.5c0.2-0.9,0.7-1.5,1.7-1.5c0.9,0,1.5,0.6,1.8,1.4
			c0.9,2.2,0.6,4.6,0.6,6.9c0,63.4,0,126.8,0,190.3c0,2.5-0.3,5,0.5,7.4c0.2,0.6,0.5,1.1,0.8,1.7c2,1.8,4.4,1.2,6.7,1.2
			c31.4,0,62.7,0,94.1,0c2,0,4-0.2,6,0.2C152.8,516.2,154.4,517.1,153,519.9z"/>
		<path fill="#D3F997" d="M253,37c15.3,0,30.6-0.1,45.9,0c1.4,0,2.7,0.7,4.1,1.1c1,1.7,0.5,3.6,0.5,5.4c0,41.1,0,82.2,0,123.3
			c-0.5,2.8-1.6,5.4-2.3,8.1c-0.3,1.2-0.9,3.3-2.9,1.3c-0.8-1.5-0.9-3.2-0.9-4.9c0-24-0.1-48.1,0-72.1c0-1.2,0.1-2.3,0.3-3.5
			c1.6-7,0.2-14.2,1.4-21.1c1.6-9.4-1.5-18.7,0.3-28.1c0.3-1.8,0.1-3.3-2.1-3.7c-10.8-0.6-21.6-0.2-32.3-0.2
			c-17.1-0.1-34.1,0-51.2,0c-2.6,0-5.3,0.3-7.7-1.3c-1.8-3.8,0.7-3.8,3.3-3.8c12.8,0,25.6,0,38.3,0C249.4,37.5,251.3,37.9,253,37z"
			/>
		<path fill="#8FEED6" d="M41.9,514.1c-0.3-2.1-0.8-4.2-0.8-6.3C41,443,41,378.2,41,313.4c0-1.9,0-3.8,0-5.7c-0.5,0-1.1-0.1-1.6-0.1
			c-0.1,1.6-0.4,3.2-0.4,4.9c-0.4,29.4-0.7,58.9-1.1,88.3c0,1.4-0.6,2.8-0.9,4.2c0-46.7,0-93.3,0-140c1.1-3.8,0.2-7.7,0.5-11.6
			c0.2-2.6,0.6-4.7,4-3.1c1.2,2,0.9,4.2,0.9,6.3c0,13.4,0,26.9,0,40.3c0,2.5,0.1,5,0.8,7.4c0.5,17.8,0.4,35.6,0.4,53.4
			c0,18.2,0,36.3,0,54.5c0,24.5,0.2,49-0.1,73.5c-0.1,7,0.4,14,0.2,21c-0.1,2.3,0.2,4.7-1.1,6.8C42.4,513.6,42.1,513.9,41.9,514.1z"
			/>
		<path fill="#BCF5AE" d="M303.8,259.1c0,38.3,0,76.6,0,114.9c-0.6,0.2-1.1,0-1.4-0.6c-0.9-4.9-0.1-9.9-0.4-14.1
			c-0.2,11.3,0.8,23.2,0.4,35.2c-0.1,2.3,0.5,4.7-1.3,6.6c-0.7,0.2-1.2,0-1.6-0.5c-1.3-2.3-0.8-4.8-0.9-7.3c-0.1-9.4,0-18.8,0-28.3
			c0-6.3,0.2-12.7,0-19c-0.6-20.5,0.9-40.9,1.4-61.4c0.2-7.3,1.2-14.7,1.6-22.1C301.7,261.1,301.8,259.4,303.8,259.1z"/>
		<path fill="#C7F7A2" d="M303.8,259.1c-0.2,0.4-0.6,0.9-0.7,1.3c-0.7,12.3-1.7,24.6-2,36.9c-0.6,22.6-0.7,45.1-1.1,67.7
			c-0.7,0.3-1.3,0.1-1.7-0.6c-0.9-1.5-1-3.2-1-4.8c-0.1-22.9-0.1-45.9,0-68.8c0-1.2,0.1-2.3,0.4-3.5c0.7-2.2,0.8-4.5,0.8-6.9
			c0-10.9,0.2-21.9-0.1-32.8c-0.2-8.1,1.3-16.1,1.2-24.2c0-1.9,0.4-3.6,2.3-4.6c0.6-0.2,1.3-0.2,1.8,0.2
			C303.8,232.4,303.8,245.7,303.8,259.1z"/>
		<path fill="#7AEBE4" d="M153,519.9c0-4-3-2.8-5-2.8c-33.5-0.1-67.1,0-100.6-0.1c-1.8,0-3.5-1.3-5.3-1.9c1.8-1.6,4-1.4,6.2-1.4
			c26.6,0,53.2-0.5,79.8,0.2c14.7,0.4,29.5,0.6,44.2,1.7c1.2,0.1,2.3,0.2,3.3,0.8c1.3,1,1.3,2.2,0.4,3.5
			C168.3,519.9,160.7,519.9,153,519.9z"/>
		<path fill="#9CF1C5" d="M37,82c0-13.6,0-27.2-0.1-40.8c0-3.2,0.8-4.6,4.2-4.3C45,37.1,49,37,53,37c0.3,0.6,0.2,1.1-0.3,1.5
			c-2.3,1.3-4.8,0.8-7.2,1c-1.7,0.1-3.6-0.5-5,1.2c-2.1,6.5-1.4,13.3-0.8,19.8c1.3,14-0.4,28.1,1,41.9c1.5,14.6,1.6,29.1,1.7,43.7
			c0,4.3,0.1,8.6-0.1,12.9c-0.1,1.8,0.1,4.3-2.2,4.3c-2.6,0.1-2-2.5-2.1-4.2c-0.2-6.6,0.3-13.2-0.3-19.8c-0.4-2.5-0.1-5.1-0.2-7.6
			c0-14.9,0-29.8,0-44.8C37.5,85.3,37.9,83.6,37,82z"/>
		<path fill="#8FEED1" d="M41,250c-1,1.6-2.5,3.1-2.9,4.8c-0.7,3.3-0.8,6.8-1.1,10.2c0-23.3,0-46.6,0-70c2.7,0.3,2.4,2.6,2.3,4.2
			c-0.2,3.5,1,6.4,2.7,9.3c0.8,3.9,0.3,7.9,0.4,11.9c0,7.8,0,15.7,0,23.5C42.4,246,42.8,248.3,41,250z"/>
		<path fill="#ABF3BF" d="M303,374c0.3,0,0.5,0,0.8,0c0.1,25.4,0.1,50.9,0.2,76.3c0,21.5,0,42.9,0,64.4c0,1.7-0.6,3.4-0.9,5.1
			c-1.7-1.7-1.4-4-1.4-6.1c-0.1-7.6,0-15.1,0-22.7c0-9,0-17.9,0-26.9c0-9.9,0-19.7,0-29.6c0-2.3-0.1-4.6-1.4-6.6
			c-0.9-7.3-0.9-14.6,0-21.9c1.5-2.5,1.9-5.2,1.9-8.1c0-6.3-0.1-12.6,0-18.8C302,377.4,301.5,375.5,303,374z"/>
		<path fill="#D1F89E" d="M303.8,219c-0.3,0-0.5,0-0.8,0c-1.7-1.5-1.6-3.6-1.6-5.5c0-12.7-0.3-25.5,0.1-38.2c0.1-2.5,0.3-5,1.5-7.2
			c0-43.3,0-86.6,0-129.9c0.3,1.4,0.9,2.8,0.9,4.2c0,58.1,0,116.2,0,174.3C303.9,217.3,303.8,218.2,303.8,219z"/>
		<path fill="#CFF89A" d="M253,37c-1.7,0.3-3.5,0.9-5.2,0.9c-12.5,0.1-24.9,0-37.4,0.1c-2.1,0-4.6-0.5-4.4,3c-0.4,0.5-1,1-1.6,1.1
			c-9.4,0.7-18.8,1.6-28.1-0.5c-1.1-1-1.2-2.2-0.6-3.5c4.7-1.6,9.6,0.4,14.3-1.1C211,37,232,37,253,37z"/>
		<path fill="#97F0D0" d="M41,208c-1-2.3-2.2-4.5-2.9-6.9c-0.6-2-0.7-4.1-1-6.1c0-21,0-42,0-63c0.3-0.5,0.7-0.5,1,0c0,2.3,0,4.7,0,7
			c0.7,1,0.6,2.2,0.5,3.4c-1.1,13.3,1,26.4,2.4,39.5c0.7,6.9,1.5,13.7,1.5,20.6C42.4,204.4,42.7,206.5,41,208z"/>
		<path fill="#86EDD9" d="M249,519.9c-8.7,0-17.3,0-26,0c-1.1-1.2-2.2-2.4-0.1-3.7c8.6-0.7,17.3-1.3,25.9,0.3
			C249.9,517.5,249.9,518.7,249,519.9z"/>
		<path fill="#8BEED5" d="M249,519.9c0-0.9,0-1.9,0-2.8c2.4-2.2,5.4-1.1,8.1-1.4c5.9,0.4,11.9-0.9,17.7,0.9c1.1,1.1,1.1,2.2,0.2,3.4
			C266.3,519.9,257.7,519.9,249,519.9z"/>
		<path fill="#91EFD0" d="M275,519.9c0-0.9,0-1.9,0-2.8c0.8-1,1.9-1.3,3.1-1.3c7.1,0,14.2-0.6,21.3,0.4c1.5,0.8,2.7,1.9,1.7,3.8
			C292.3,519.9,283.7,519.9,275,519.9z"/>
		<path fill="#81ECDE" d="M222,517c0.3,0.9,0.7,1.9,1,2.8c-8,0-16,0-24,0c-1.6-1.1-2.1-2.3-0.3-3.7C206.5,515.5,214.3,514.2,222,517
			z"/>
		<path fill="#7DECE1" d="M198,517c0.3,1,0.6,1.9,1,2.9c-7.7,0-15.3,0-23,0c0-1,0-1.9,0-2.9c5.3-3,11-0.9,16.5-1.4
			C194.4,515.4,196.5,515.3,198,517z"/>
		<path fill="#B9F6AD" d="M190,37c-4.7,0.3-9.3,0.6-14,1c-1.7,1.6-3.9,1.5-6,1.5c-6.2,0-12.5,0-18.7,0c-7.2-0.4-14.5,1-21.7-0.8
			c-0.6-0.4-0.8-0.9-0.5-1.6C149.3,37,169.7,37,190,37z"/>
		<path fill="#97F0CB" d="M301,519.9c-0.3-1-0.7-1.9-1-2.9c-0.4-8.6-1.3-17.2,0.5-25.7c0.8-0.8,1.6-0.9,2.5-0.3c0,9.6,0,19.2,0,28.8
			C302.3,519.9,301.7,519.9,301,519.9z"/>
		<path fill="#9CF0C9" d="M38,132l-0.5,0c0,0-0.5,0-0.5,0c0-16.7,0-33.3,0-50c0.3,1.7,0.9,3.5,0.9,5.2C38,102.1,38,117.1,38,132z"/>
		<path fill="#A8F3BC" d="M53,38c0-0.3,0-0.6,0-1c13.3,0,26.7,0,40,0c0.3,0.7,0.1,1.2-0.5,1.6c-7.5,1.8-15.1,0.5-22.6,0.8
			c-4,0.1-7.9,0-11.9,0C56.2,39.5,54.4,39.5,53,38z"/>
		<path fill="#B1F4B3" d="M93,38c0-0.3,0-0.6,0-1c12,0,24,0,36,0c0,0.3,0,0.6,0,1c-1.8,1.9-4.1,1.4-6.3,1.5c-8.4,0-16.9,0.1-25.3,0
			C95.8,39.4,94.2,39.4,93,38z"/>
		<path fill="#A8F2C5" d="M198,517c-7.3,0-14.7,0-22,0c-44.7-0.7-89.3-1.3-134-2c0-0.3-0.1-0.6-0.1-0.9c0,0,0.2-0.1,0.2-0.1
			c2-1.9,4.6-1.7,7.1-1.7c32.6,0.2,65.3,0,97.9,0.1c17.8,0,35.6,0,53.5-0.1c27.1-0.1,54.3,0,81.4,0c2.6,0,5.4-0.4,7.7,1.3
			c0.6,3.3-2,2.2-3.4,2.3c-4.7,0.2-9.5,0.1-14.2,0.1c-15.8-0.2-31.7-0.8-47.5-0.5c9.5,0,18.9-0.1,28.4,0.1c1.3,0,3.5-1.3,4,1.4
			c-2.7,0-5.3,0-8,0.1c-9,0-18,0-27,0C214,517,206,517,198,517z"/>
		<path fill="#FAF9F8" d="M289.8,514.4c-2.3-0.1-4.7-0.2-7-0.2c-80.3,0-160.5-0.1-240.8-0.1c0-67.5-0.1-135.1-0.1-202.6
			c0-2.5-0.1-5-0.1-7.5c-0.7-7.8-0.2-15.6-0.3-23.4c-0.1-20.1,0-40.3,0-60.4c0.4-24.7-1.8-49.3,0-74c0-10.6,0.8-21.3-0.2-31.8
			c-1.6-17.4-0.2-34.8-0.9-52.1c0.4-5.3,0.1-10.6,0.2-15.9c0.1-5.5,1.2-6.6,6.8-6.6c7.5-0.1,14.9-0.1,22.4,0c9,0,18.1,0,27.1,0
			c8.7,0,17.4,0,26,0c9.3,0,18.7,0,28,0c6.5,0,12.9,0,19.4,0c2,0,4,0,5.6,1.5c10,0,20,0,30,0c30.9,0,61.8,0.1,92.8,0.1
			c1.1,1,1.2,2.3,1.2,3.6c-0.3,16.3-0.2,32.6-0.5,48.9c0,0.5-0.3,0.9-0.4,1.4c0,27.3,0,54.7,0,82c1.8,1.7,1.6,3.9,1.6,6.1
			c0.4,34.2-2,68.3-1.2,102.5c0,0.5-0.3,0.9-0.4,1.4c0,26,0,52,0,78c1,8.2,0.1,16.5,0.5,24.8c0.5,11.7,0.6,23.4,0.5,35.2
			c0.9,17.7,0.2,35.4,0.4,53.1c0.1,9.9-0.7,19.8-0.5,29.7C300.1,515.5,297.6,517,289.8,514.4z"/>
		<path fill="#CCF89C" d="M299,287c0-36.7,0-73.3,0-110c1.3-3,2.6-6,4-9c0,17,0,34,0,51c-0.7,1.6-1.9,3.1-1.9,4.7
			c-0.5,19-0.7,38.1-1.1,57.1C299.9,282.9,299.3,284.9,299,287z"/>
		<path fill="#D7FA93" d="M299,95c-0.1-18-0.2-36-0.3-53.9c0.7,2,1.8,3.9,2,5.9c0.3,3.7,0.2,7.5,0.1,11.2
			c-0.1,6.6-0.2,13.1-0.3,19.7c-0.1,4-0.3,7.9-0.6,11.9C299.8,91.5,299.4,93.3,299,95z"/>
		<path fill="#97F0D0" d="M41.8,220c0,28,0,55.9,0,83.9c-0.3-1.8-0.8-3.5-0.8-5.3C41,282.4,41,266.2,41,250c0-10,0-20,0-30
			C41.3,219.6,41.5,219.5,41.8,220z"/>
		<path fill="#ADF3B7" d="M303,374c0,9.2,0.1,18.4-0.1,27.7c0,1.5-1.2,2.9-1.9,4.3c-1.4-1.7-1.1-3.3,0-5c0-16.4,0-32.8,0-49.3
			c0.7,0,1.3,0,2,0C303,359.1,303,366.6,303,374z"/>
		<path fill="#B0F4B5" d="M301,401c0,1.7,0,3.3,0,5c0,7.3,0,14.7,0,22c0.9,1.1,1,2.4,1,3.8c-0.1,10.3,0.2,20.6-0.2,30.9
			c-0.2,0.6-0.5,1.2-1,1.5c-0.8,0-1.2-0.3-1.2-1.1c-0.1-12.7,0-25.4,0-38.2c0.3-8-0.6-16,0.5-24C300.3,401,300.7,401,301,401z"/>
		<path fill="#C0F7A6" d="M300,401c0,8,0,16,0,24c-0.3,0.5-0.6,0.5-1,0c0-20,0-40,0-60c0.3,0,0.6,0,1,0C300,377,300,389,300,401z"/>
		<path fill="#AEF3B7" d="M41.8,61.9c0,28,0,56.1,0,84.1c-0.2,0.5-0.5,0.4-0.7,0c-0.7-22-1.4-44-2-65.9c-0.4-12.3-0.7-24.6-0.9-36.9
			c0-1.7,0.6-3.5,1-5.2c2.1,3.9,2.4,8.1,2.5,12.4C41.6,54.3,41.1,58.1,41.8,61.9z"/>
		<path fill="#9CF0C9" d="M41,146c0.2,0,0.5,0,0.7,0c0,24.7,0,49.3,0,74c-0.3,0-0.5,0-0.8,0c0-4,0-8,0-12c0-6.5,1.2-13.2-0.2-19.3
			c-3.9-16.5-2.2-33.1-2.7-49.7c0.3,3.7,0.8,7.4,1,11.2c0.2,4,0,8.1,0,12.1c0.7,0,1.3,0,2,0C41,156.9,41,151.4,41,146z"/>
		<path fill="#B6F5B0" d="M41.8,61.9c-0.2-0.4-0.6-0.8-0.7-1.3C40.4,53.1,39.7,45.5,39,38c4.7,0,9.3,0,14,0c5.7,0,11.3,0,17,0
			c0.8,1,0.8,2,0,3c-7.3,0-14.7,0.3-22,0c-4.7-0.2-6.6,1-6.2,6C42.2,51.9,41.8,56.9,41.8,61.9z"/>
		<path fill="#A1F1C2" d="M301,464c0-12,0-24,0-36c0.7,1.4,1.9,2.9,1.9,4.3c0.2,10.6,0.1,21.1,0.1,31.7
			C302.3,464.6,301.7,464.5,301,464z"/>
		<path fill="#9CF0C6" d="M301,464c0.7,0,1.3,0,2,0c0,9,0,18,0,27c-0.7,0-1.3,0-2,0c-1.7-2-1.1-4.5-0.9-6.7
			C300.4,477.5,298.9,470.7,301,464L301,464z"/>
		<path fill="#CBF89D" d="M176,41c-8.3,0-16.7,0-25,0c-0.8-1-0.8-2,0-3c8.3,0,16.7,0,25,0C176,39,176,40,176,41z"/>
		<path fill="#AAF3B9" d="M301,464c0,9,0,18,0,27c0,7.1,0,14.2-0.1,21.3c0,1.6-0.6,3.1-1,4.7c-8.3,0-16.7,0-25,0c-6,0-12,0-18-0.1
			c-1.7-0.3-3.5-0.9-5.2-0.9c-9.5-0.1-18.9,0-28.4-1c16.2,0,32.4,0,48.6,0c8.4,1.2,16.8,0.1,25.2-0.1c2.7-0.1,2.3-2.3,2.3-4.1
			c0-10.9,0-21.8,0-32.8c0.3-4.7-0.6-9.4,0.5-14.1C300.3,464,300.7,464,301,464z"/>
		<path fill="#C7F7A1" d="M151,38c0,1,0,2,0,3c-9.3,0-18.7,0-28,0c-0.8-1-0.8-2,0-3c2,0,4,0,6,0C136.3,38,143.7,38,151,38z"/>
		<path fill="#BDF6AA" d="M70,41c0-1,0-2,0-3c7.7,0,15.3,0,23,0c1.3,0,2.7,0,4,0c0.8,1,0.8,2,0,3C88,41,79,41,70,41z"/>
		<path fill="#C2F6A5" d="M97,41c0-1,0-2,0-3c8.7,0,17.3,0,26,0c0,1,0,2,0,3C114.3,41,105.7,41,97,41z"/>
		<path fill="#B8F5AE" d="M300,478c0,11-0.1,21.9,0.1,32.9c0.1,3.7-0.7,5.4-4.9,5.2c-6.3-0.4-12.6,0-18.9-0.1
			c-1.4,0-2.8-0.6-4.2-0.9c5.9-0.2,11.9-0.5,17.8-0.7c9.2-0.7,9.1-0.7,9.2-10c0-8.8,0.1-17.6,0.1-26.4
			C299.4,477.5,299.7,477.5,300,478z"/>
		<path fill="#A7F2BD" d="M157,280.2c1.8-0.4,3.8-1.6,5.3-1.1c3.8,1.2,7.3,3.1,10.9,4.8c0.9,2.7,2.6,4.9,4.2,7.3
			c11.1,16.1,22.2,32.2,33.4,48.2c0.6,0.8,1.1,1.6,1.3,2.7c-1.1,4-2.1,8-3.2,12c-3.1,1.5-4.1-1.3-5.4-3
			c-7.9-10.7-15.2-21.8-22.7-32.7c-7.5-10.8-15-21.5-22.4-32.4C157.2,284.2,155.2,282.6,157,280.2z"/>
		<path fill="#ACF3B8" d="M157,280.2c1.6,2.8,3,5.8,4.8,8.4c14.3,20.7,28.6,41.4,43,62c1,1.4,2.6,2.2,4,3.3c-1.3,4-2.6,8-3.8,12
			c-3.1,0.6-3.9-2.1-5.1-3.9c-15.1-22.5-30.9-44.4-45.9-66.9c-1.9-2.9-5.4-5.1-5.1-9.3C151.6,284,154.3,282.1,157,280.2z"/>
		<path fill="#BBF5AC" d="M183,381.9c-3,0.3-6,0.6-9,0.9c-6.1-6-9.9-13.7-14.8-20.5c-12.3-17.3-24.2-35-36.3-52.4
			c-1-1.5-2.5-2.8-1.9-4.9c5.8-4.7,5.9-4.8,11,0.6c2.1,2.1,4,4.4,6,6.6c13.6,21.3,28.7,41.6,42.7,62.7
			C182.1,376.9,184.6,378.9,183,381.9z"/>
		<path fill="#BEF6A9" d="M121,305c17.1,24.8,34.1,49.6,51.2,74.4c0.7,1.1,1.2,2.3,1.8,3.5c-5-0.3-10-0.6-15-0.8
			c2.3-2,1.1-3.7-0.2-5.6c-9-13.2-18.1-26.3-27.1-39.4c-5.3-7.7-10.7-15.2-15.8-23c-0.8-1.2-1.8-2.4-1.9-4
			C116.3,308.3,118.7,306.7,121,305z"/>
		<path fill="#AFF3B5" d="M149,285.9c17.7,25.7,35.3,51.3,53,76.9c0.8,1.2,2,2.1,3.1,3.1c0,1.7,0,3.5-2.2,1.3
			c-2.6-2.6-5.2-5.1-7.7-7.7c-8.1-8.5-16.1-17-24.2-25.4c-7.9-13-17.2-25.1-25.6-37.8c-1.2-1.9-3.2-3.6-2.3-6.2
			C145,288.7,147,287.3,149,285.9z"/>
		<path fill="#C2F6A6" d="M113.9,310c3.5,4.8,7.2,9.4,10.6,14.3c12.2,17.7,24.3,35.5,36.5,53.3c2,2.9,2.6,4.9-2.1,4.5
			c-2.3-0.3-4.7-0.7-7-1c-3.8-8.6-10-15.6-15.1-23.3c-8.2-12.3-16.8-24.3-25.1-36.5c-1.5-2.2-3.4-4-4.9-6.3
			C109.2,313.3,111.5,311.6,113.9,310z"/>
		<path fill="#81ECDE" d="M193,175.9c6.2,2.1,12.5,4.1,18.7,6.2c6.2,10.2,13.3,19.7,20,29.5c1.2,1.8,2.9,3.2,3.4,5.4c-3,2-6,4-8.9,6
			c-2.7,1.3-4.1-0.7-5.3-2.4c-9-13.1-18.1-26.3-27.2-39.3C192.6,179.7,191.3,178,193,175.9z"/>
		<path fill="#8DEED3" d="M160,189c1.4-2.8,2.7-5.6,4.5-9.3c4.6,6.2,8.8,11.8,12.9,17.5c8.5,11.9,16.8,24,25.6,35.6
			c3.1,4.1,2.2,5.8-1.8,7.6c-0.9,0.4-1.7,1-2.6,1.5c-2.8,0.3-3.7-2-4.8-3.7c-7.9-11.1-15.7-22.3-23.3-33.6
			C167.1,199.4,163.1,194.5,160,189z"/>
		<path fill="#C6F7A1" d="M144,379.9c-4.3-1.6-8.7-3.2-13-4.8c-10.7-15.7-21.5-31.3-32.3-46.9c-1.2-1.8-2.8-3.3-3.8-5.2
			c2.4-1.7,4.7-3.3,7.1-5c2.4-1.3,3.3,0.8,4.3,2.2c12.4,17.7,24.7,35.5,36.9,53.4C144.5,375.4,146,377.5,144,379.9z"/>
		<path fill="#84EDDB" d="M193,175.9c0.7,1.8,1.1,3.8,2.2,5.4c8.8,12.8,17.7,25.6,26.6,38.3c1,1.5,2.9,2.4,4.4,3.6
			c-2.8,1.9-5.6,3.9-8.5,5.8c-2.1,0.3-2.9-1.4-3.8-2.7c-10.8-15.6-21.8-31.1-32.2-46.9c-0.9-1.4-4-3.1-0.7-5.3
			C185,174.6,189,175.3,193,175.9z"/>
		<path fill="#B8F5AE" d="M183,381.9c-2.5-4.3-4.7-8.7-7.5-12.7c-11.4-16.6-23-33.1-34.4-49.8c-1.4-2.1-2-4.8-3-7.2
			c10.3,10.6,20.7,21.2,31,31.8c6.8,10.7,14.5,20.7,21.3,31.4c1,1.5,3.6,3.3,0.7,5.5C188.4,381.2,185.7,381.6,183,381.9z"/>
		<path fill="#CAF89F" d="M94.9,323c2.5,2.7,5.4,5.2,7.5,8.2c9.1,13.1,18,26.3,26.9,39.5c0.9,1.3,1.1,3,1.7,4.5
			c-6-3-12-6.1-17.9-9.1c-4-7.9-9.6-14.7-14.4-22.1c-3.6-5.4-7.5-10.5-10.8-16.1C90.2,326.2,92.5,324.6,94.9,323z"/>
		<path fill="#A3F1C1" d="M212.1,342c-2.6-3.2-5.4-6.2-7.7-9.5c-10.1-14.5-20.1-29-29.9-43.6c-0.9-1.3-0.8-3.3-1.2-5
			c4.3,1.7,8.6,3.4,12.9,5.1c8.3,12.8,17.2,25.3,26,37.9c1.2,1.6,2,3.4,3,5.1C214,335.3,213,338.7,212.1,342z"/>
		<path fill="#92EFCF" d="M160,189c2.4,2.8,5.1,5.4,7.2,8.5c9.7,13.8,19.2,27.7,28.9,41.6c0.7,1.1,1.8,1.9,2.7,2.8
			c-2.6,1.7-5.1,3.5-7.7,5.2c-4.2-3.7-6.6-8.7-9.8-13.1c-8.2-11.5-16-23.3-24.3-34.8c-0.7-0.9-1.4-1.9-1-3.2
			C157.3,193.7,158.7,191.3,160,189z"/>
		<path fill="#82ECDD" d="M274.8,282c-0.7,5.6-1.4,11.3-2,16.9c-2.8,1.3-3.9-1.1-5.1-2.7c-5.7-7.6-10.9-15.5-16.2-23.4
			c-2.5-3.7-5.6-7-7.7-11c1.3-4.7,2.7-9.4,4-14.1c3,0.8,4.4,3.4,5.9,5.7c5,7.5,10.4,14.7,15.2,22.3
			C270.6,278.3,272.3,280.5,274.8,282z"/>
		<path fill="#C4F7A4" d="M144,379.9c-2-4.1-3.7-8.4-6.2-12.1c-10.5-15.5-21.3-30.8-32-46.1c-1-1.4-2.5-2.4-3.8-3.6
			c1.6-1,3.2-2.1,4.8-3.1c1.4,1,3.2,1.8,4.1,3.1c13.2,19,26.4,38,39.5,57.1c1.1,1.6,1.1,3.9,1.5,5.9
			C149.3,380.7,146.6,380.3,144,379.9z"/>
		<path fill="#88EDD8" d="M181,174c0,0.7-0.3,1.7,0.1,2.2c12.2,17.6,24.4,35.2,36.6,52.8c-5,4.4-5,4.4-8.7-0.8
			c-11.8-16.4-23.7-32.9-35.5-49.3c-1.1-1.6-2.1-3.3-4-6.2C174.2,173.2,177.6,173.6,181,174z"/>
		<path fill="#7CEBE2" d="M235.1,217.1c-1.5-1.7-3.3-3.2-4.6-5.1c-6.1-8.7-12.2-17.6-18.2-26.4c-0.6-0.9-0.5-2.3-0.7-3.5
			c13.2,4.9,24.1,13.2,33.9,23c2.4,2.4,2.7,3.7-0.5,5.5C241.7,212.6,238.5,214.9,235.1,217.1z"/>
		<path fill="#9BF0C7" d="M181,254c-2.4,1.7-4.9,3.3-7.3,5c-2.1,1.2-3.1-0.5-4-1.7c-8.6-11.8-16.6-24-25-36c-0.7-0.9-1.2-2-0.7-3.3
			c1.7-3,3.3-6,5-9.1c3.3,2.2,5,5.8,7.1,8.9C164.5,229.9,172.9,241.9,181,254z"/>
		<path fill="#F5F6F0" d="M151,498.5c-1.3,0.4-2,0.6-2.8,0.8c-7.6,2.3-9.2,1.1-9.2-6.5c0-2.2,0-4.3,0-6.5c0-6.3,2.5-8.3,8.5-5.9
			c2.1,0.8,4.5,2.8,5.4,4.8c1.2,2.9,3.3,3.7,5.7,4.5c-1.5,1.5-4,2.7-4.3,4.4c-0.7,3.4-0.2,6.9-0.3,10.4c-0.1,4.8-2.4,6.9-7.2,6.3
			c-8.1-1-16.2-8.4-17.7-16.1c-1.5-7.6,2.7-15.7,10.2-20c5.8-3.3,15.1-2.5,20.7,1.8c5.4,4.1,8.5,12.9,6.8,19.2
			c-0.3,1.1-1.5,1.9-2.3,2.9c-0.2-1.2-0.7-2.5-0.5-3.7c1.8-9.1-2.7-16.2-12.2-19.3c-7.3-2.3-15.4,1.5-18.8,9
			c-4.6,10,2.8,22.4,13.8,23.1c2.6,0.2,4.2-0.8,4.1-3.7C151,502.5,151,500.7,151,498.5z"/>
		<path fill="#F5F6F0" d="M188,484.6c1.5-0.6,2.4-1,3.4-1.2c7-1.8,8.6-0.6,8.6,6.4c0,2,0.2,4,0,6c-0.3,2.3-0.8,4.6-1.3,6.9
			c-3.5-0.7-7.1-0.8-10.3-2.1c-3.2-1.4-2.8-7.3-7.7-7.2c0.4-0.8,0.9-2.2,1.3-2.3c3.4-0.1,3.1-2.3,3.1-4.5c0-3.3-0.3-6.7,0.2-10
			c0.2-1.3,1.8-3.3,3.1-3.5c6.9-1.2,13,0.9,17.4,6.3c4.7,5.7,6,12.3,2.9,19.2c-3.1,6.9-13.8,14.2-21.1,11.7
			c-11.4-3.9-17.5-12.4-15.3-22.8c0.3-1.2,1.6-2.2,2.4-3.3c0.2,1.3,0.6,2.6,0.4,3.7c-1.9,9.7,4.3,18.3,14.5,19.9
			c7.4,1.2,16.7-5.6,17.6-13c1.3-10.5-5-18.9-14.9-19.9c-2.9-0.3-4.5,0.6-4.2,3.8C188.1,480.5,188,482.1,188,484.6z"/>
		<path fill="#87EDD9" d="M243.9,262c4.8,6.2,9.7,12.4,14.4,18.7c3.7,5,7.1,10.3,10.8,15.4c0.9,1.2,2.4,2,3.7,2.9
			c-1,3.9-2,7.9-3.3,13.1c-4.6-6.2-8.3-11.4-12.1-16.5c-4.9-6.7-9.6-13.6-14.5-20.2C239.3,270.5,242.3,266.3,243.9,262z"/>
		<path fill="#F5F5F0" d="M188.3,441.5c1.2-0.4,2.1-0.8,3.1-1.1c7-1.8,8.6-0.6,8.6,6.4c0,2,0.2,4-0.1,6c-0.3,2.4-1.3,6.8-1.7,6.8
			c-3.5-0.2-7.1-0.8-10.2-2.3c-3-1.4-2.6-6.9-7.4-6.9c0.4-0.8,0.8-2.3,1.2-2.3c3.3,0,3.2-2.2,3.1-4.5c0-1.7,0-3.3,0-5
			c0-8.8,2.7-10.8,11.3-8.4c8.7,2.4,14.8,11.6,13.7,20.7c-1,8.2-9.8,15.5-18.3,16.2c-11.4,0.9-21.4-9.6-19.6-22
			c0.1-0.7,0.1-1.5,0.5-1.9c0.7-0.8,1.6-1.3,2.5-1.9c0,0.9,0.3,1.8,0.1,2.7c-2.1,7.1,0.7,12.6,5.7,17.3c4.6,4.3,11.4,4.7,18.1,1.3
			c6-3.1,9-9.3,8.1-17.3c-0.6-5.2-5.8-11-11-12.3c-0.5-0.1-1-0.2-1.5-0.3c-6.1-1.5-6.6-1.1-6.5,5.1
			C188,438.9,188.2,440.1,188.3,441.5z"/>
		<path fill="#F5F5F0" d="M180.4,64.3c4.9,0.4,4.8-2.7,4.6-6.1c-0.2-2.5,0.2-5-0.1-7.5c-0.4-4.5,1.8-5.9,5.9-5.8
			c8,0.3,15.5,5.7,18.1,13.3c2.5,7.2,0.3,14.7-6,20.2c-5.7,5-14.6,5.9-21.5,2.2c-7.2-3.9-11.5-13.8-9-21.4c0.3-1,1.4-1.8,2.1-2.7
			c0.2,1.1,0.7,2.3,0.5,3.4c-1.6,9,1.8,16.1,9.3,19.2c5.6,2.3,14.7,0.5,18.6-3.7c3.9-4.3,5.3-12.7,2.9-17.8
			c-2.8-6-8.9-10.2-14.4-9.6c-1.2,0.1-3.1,1.1-3.2,2c-0.4,2.2,0,4.6,0.1,6.9c0.9-0.2,1.9-0.2,2.8-0.5c7.5-1.9,8.9-0.9,8.9,6.5
			c0,2.3,0,4.7,0,7c0,6-3.4,8-8.7,5.1c-1.7-0.9-3.1-2.5-4.5-3.9C184.8,69.1,182.9,67,180.4,64.3z"/>
		<path fill="#F5F5F0" d="M157.7,63.5c-3.9,0-4,3.1-3.7,6.6c0.1,2,0,4,0,6c0,6.2-1.2,7.5-7.2,6.9c-9.4-1-18.6-8.5-17.8-20.2
			c0.7-9.6,10.5-18.7,20.2-17.6c11.3,1.3,20,10.5,17.5,23.1c-0.2,1.2-1.5,2.1-2.2,3.2c-0.1-1.2-0.6-2.4-0.4-3.6
			c1.6-9-3-16.3-10.4-19.1c-6.1-2.3-12.2-0.9-17.3,4.4c-4.7,4.8-5.9,11.2-3.3,17c3,6.7,7.8,10.1,14.1,9.8c1.3-0.1,3.4-0.8,3.5-1.6
			c0.4-2,0-4.2-0.1-6.4c-1.4,0.1-2.8,0-4.2,0.4c-6.6,1.8-7.5,1.2-7.5-5.7c0-2-0.2-4,0.1-6c0.4-2.5,0.4-6.4,2-7.2
			c3.8-2.2,9,0.3,11.6,4C154.2,59.6,156.1,61.5,157.7,63.5z"/>
		<path fill="#A0F1C3" d="M144,218c8.8,12.7,17.7,25.5,26.6,38.2c0.8,1.1,2.1,1.9,3.2,2.8c-2.5,1.7-5.1,3.4-7.6,5.1
			c-2.6,1.3-3.6-0.7-4.7-2.2c-7.4-10.3-14.2-21.1-21.9-31.2c-0.8-1-1.5-2.2-0.5-3.6C140.7,224.1,142.4,221,144,218z"/>
		<path fill="#F5F5F0" d="M139,447c0-0.7-0.1-1.4,0-2c0.6-2.7,0.4-6.8,2.1-7.7c4-2.3,9.3,0.5,12,4.6c1.1,1.7,3,2.8,4.5,4.2
			c0.4,0.4,1.1,0.9,1.1,1.4c0,0.5-0.8,1.3-1.2,1.3c-4.3,0-3.4,3.1-3.5,5.6c0,2.7-0.1,5.3,0,8c0.2,3.5-1.4,4.5-4.8,4.6
			c-13.5,0.3-23.4-11.8-19.4-24.1c3.1-9.5,13.5-15.1,23.5-12.7c9.1,2.2,15.4,12.4,13.4,22.1c-0.3,1.2-1.5,2.3-2.3,3.4
			c-0.2-1.2-0.7-2.5-0.5-3.7c1.6-8.4-2.7-16.4-10.4-19c-8.7-2.9-17.4,0.5-20.6,9c-4.3,11.3,2.2,21.3,14.6,22.8c1,0.1,2.8-1,3-1.9
			c0.5-2.1,0.2-4.3,0.2-6.4c-1.1,0.1-2.3,0-3.4,0.2C139.9,458.5,139,457.5,139,447z"/>
		<path fill="#F5F5F0" d="M158,106.7c-5.6,1.2-4.2,6.1-3.9,10.2c0.7,10.2-2.3,10.2-10.9,8.2c-9.4-2.2-15.3-10.7-14.2-20
			c1.2-9.4,8.7-16,18.5-16c12.6,0,20.1,7.6,19.5,19.9c-0.1,1-0.1,2.1-0.5,2.9c-0.5,1-1.4,1.8-2.1,2.7c-0.1-1-0.3-2.1-0.4-3.1
			c-0.2-3,0.3-6.3-0.5-9.1c-1.9-6.2-6.4-10.1-12.8-11.2c-7.2-1.3-12.7,1.8-16.5,7.8c-6.6,10.3,1,24.3,13.3,24.7c1.1,0,3-0.9,3.2-1.6
			c0.4-2.2,0.1-4.6,0.1-6.9c-1.2,0.1-2.4,0-3.5,0.4c-6.5,2-8.2,0.9-8.2-5.6c0-2.5-0.2-5,0.1-7.5c0.2-2.1,1-5.9,1.6-5.9
			c3.1-0.1,6.4,0.5,9.4,1.4c1.2,0.4,1.9,2.2,2.9,3.3C154.6,102.8,156.1,104.6,158,106.7z"/>
		<path fill="#F5F5F0" d="M115,492.8c0,0.8,0.1,1.7,0,2.5c-0.5,2.6-0.3,6.3-1.9,7.4c-3.4,2.3-9.2-0.2-11.6-3.9c-1.4-2-1.4-5.4-5.2-5
			c-0.3,0-1-1-0.9-1.4c0.1-0.5,0.9-1.2,1.3-1.2c3.6,0.1,3.4-2.3,3.3-4.8c-0.1-3.2,0.1-6.3-0.1-9.5c-0.2-3.1,1.2-3.9,4.1-4
			c9.8-0.2,19.1,6.3,19.9,14.3c1.5,14.7-5.8,21.6-16.8,23.4c-11.8,2-24.1-12.3-20.4-23.2c0.4-1.1,1.4-2,2-3c0.1,1.1,0.6,2.2,0.4,3.3
			c-1.6,10,3.6,17.8,13.4,19.9c7.9,1.7,16.4-4,18.9-12.6c2.6-9.1-5.9-20.2-15.4-20.1c-2.5,0-4.4,0.4-3.3,3.8c0.3,1-0.5,2.3-0.2,3.3
			c0.2,0.8,1.5,2.1,2,2C115,481.5,115,481.4,115,492.8z"/>
		<path fill="#F5F5F0" d="M272,400.9c1.7-1.2,2.4-2,3.2-2.3c5.6-2.5,8.8-0.5,8.8,5.5c0,3.3-0.2,6.7,0,10c0.2,3.1-1.3,4.7-4.1,3.8
			c-3.1-1-6.1-2.7-8.9-4.5c-1.9-1.2-3.5-3-5-4.7c-0.4-0.5-0.2-2.2-0.1-2.3c4.4-0.7,2.7-4.2,3.1-6.7c0-0.3,0-0.7,0-1
			c0.5-3.5,0.1-9.2,1.9-9.9c4.8-2.1,10.7-1.5,15.1,2c7.5,5.9,12.1,14.2,6.3,24.4c-4.8,8.4-15.5,12.2-24.6,8.6
			c-8.2-3.2-13.9-14.9-10.6-22.2c0.4-0.8,1.5-1.4,2.2-2.1c0,0.9,0.3,1.8,0.1,2.7c-1.4,8.7,1.5,15.3,8.2,18.5
			c7.5,3.6,15.2,1.8,21-4.8c3.3-3.8,4.1-11.3,1.8-15.9c-3-6-10.1-10.8-15.5-9.9c-1.1,0.2-2.5,1.8-2.8,3
			C271.7,395.3,272,397.7,272,400.9z"/>
		<path fill="#F5F5F0" d="M284,365.1c0,1.2,0.2,2.4,0,3.5c-0.4,2.1-0.9,5.9-1.5,6c-2.8,0.2-6.1,0-8.4-1.4c-3.2-1.9-5.6-5-8.3-7.7
			c-0.3-0.3-0.2-1.7-0.2-1.7c5.2-1.2,3-5.4,3.5-8.5c0.5-3.3,0.2-8.8,1.8-9.4c4.9-2,10.7-1.5,15.1,1.9c7.5,5.8,12.2,14.1,6.4,24.4
			c-4.8,8.4-15.4,12.3-24.6,8.7c-8.2-3.2-13.9-14.9-10.7-22.1c0.4-0.9,1.4-1.4,2.2-2.1c0.1,0.9,0.3,1.8,0.2,2.7
			c-1.7,11,2.6,17.6,13.3,20.2c6,1.5,13.1-2.1,17-8.5c3.3-5.5,2.5-12.7-1.8-17.4c-3.5-3.9-7.5-6.6-12.9-6.3c-1,0.1-2.7,1.1-2.8,1.9
			c-0.2,2.4,0.2,4.9,0.3,7.4c0.6-0.1,1.3-0.1,1.8-0.3c8.9-2.6,9.6-2.1,9.6,7C284,363.8,284,364.4,284,365.1z"/>
		<path fill="#F4F5F0" d="M103.2,441.5c1.4-0.5,2.3-0.9,3.2-1.2c6.9-1.8,8.6-0.6,8.6,6.5c0,1.8,0.2,3.7-0.1,5.5
			c-0.4,2.6-0.6,6.8-1.9,7.2c-4,1.3-8.2,0.6-11.2-3.2c-1.7-2.3-1.9-6.4-6.4-5.7c-0.2,0-0.9-0.9-0.8-1.1c0.3-0.5,0.8-1.3,1.3-1.3
			c4.9,0.2,3.9-3.3,4-6.1c0-0.7-0.1-1.3,0-2c0.4-3.3,0.1-8.9,1.5-9.4c4.8-1.7,10.2-1.1,14.7,2.2c7.6,5.7,10,14.7,6.5,23.6
			c-2.9,7.1-11.7,11.6-20.7,10.6c-7.2-0.9-14.8-8.7-15.9-16.6c-0.1-1-0.3-2.1,0-3c0.7-2.1,1.8-4,2.7-6c0.1,1.7,0.3,3.5,0.2,5.2
			c-0.5,7.6,2.8,13.3,9.5,16.5c5.9,2.8,12.6,1.9,17.1-2.4c6.3-5.9,8.1-11.6,5-18.2c-2.4-5.2-6.3-9.5-12.4-10.6
			c-5.1-0.9-6.2,0.3-5.4,5.3C103.1,438.5,103.1,439.7,103.2,441.5z"/>
		<path fill="#F5F5F0" d="M180.3,107.3c4.7,0.4,5.1-2.3,4.7-5.6c-0.1-1.2,0-2.3,0-3.5c0-9.6,2.7-11.5,12.2-8.6
			c7.5,2.3,12.7,9.5,12.8,17.7c0,7.7-5.3,14.9-12.6,17.4c-13.8,4.5-26.6-5.6-25.3-20.2c0.1-0.8,0.1-1.7,0.5-2.4
			c0.5-0.9,1.4-1.7,2.1-2.5c0.2,1.1,0.8,2.4,0.4,3.3c-2.9,6.9,3.1,17,9.3,19.2c5.7,2,14.7,0.5,18.6-3.8c4.1-4.5,5.4-12.3,2.9-17.7
			c-2.8-6-8.8-10.2-14.4-9.7c-1.2,0.1-3.1,1.1-3.3,1.9c-0.4,2.2,0,4.6,0.1,6.9c0.8-0.1,1.5,0,2.3-0.2c8.7-2.1,9.4-1.5,9.4,7.3
			c0,2.3,0,4.7,0,7c0,4.9-1.2,6.2-5.9,4.8c-2.7-0.8-5.2-2.8-7.4-4.6C184.5,112.3,182.8,110,180.3,107.3z"/>
		<path fill="#F4F5F0" d="M224,490.2c0-0.7-0.2-1.4,0-2c0.9-2.7-2.3-6.7,2.3-8.1c5-1.5,9.4,0.5,11.7,5.1c1.1,2.1,1.7,4.3,4.8,4
			c0.4,0,1,0.7,1.5,1.1c-0.5,0.5-1,1.6-1.5,1.5c-4.3-0.3-3.8,2.7-3.7,5.3c0,3-0.1,6,0,9c0.2,3.9-2,4.9-5.3,4.8
			c-6.9-0.1-15.4-5.9-17.6-12c-3.1-8.3-1.1-16,5.6-22.1c4.8-4.4,14.1-5.3,20.7-2.1c7.4,3.6,12.3,13.9,9.9,20.9c-0.4,1.1-1.4,2-2.1,3
			c-0.1-1.1-0.5-2.3-0.3-3.4c2.1-13.1-8.4-22.7-21.3-19.2c-6.8,1.8-12.4,10.3-11.5,17.2c1,7.5,8.9,15,15.9,14.7
			c1.3,0,3.4-0.9,3.6-1.7c0.5-2.3,0.1-4.8,0-7.3c0-0.2-0.8-0.5-1.2-0.4c-0.6,0.1-1.2,0.5-1.8,0.7c-7.7,2.5-9.5,1.3-9.5-6.5
			C224,491.9,224,491,224,490.2z"/>
		<path fill="#F5F5F0" d="M272,485.8c1.6-1.1,2.4-1.9,3.4-2.3c5.4-2.3,8.6-0.3,8.6,5.3c0,2.8,0.2,5.7-0.1,8.5
			c-0.1,1.8-0.7,5.2-1.2,5.2c-2.8,0.2-6.2,0.3-8.4-1c-3.3-2-5.8-5.3-8.6-8.1c-0.3-0.3-0.2-1.7-0.1-1.7c5.2-1.2,2.9-5.4,3.4-8.5
			c0.5-3.3,0.6-9.2,1.8-9.4c4.2-0.8,9-0.5,13,0.9c6.4,2.3,12,11.5,11.1,17.5c-1.2,7.8-5.4,13.6-12.9,16.9c-7,3.1-13,1.6-18.4-3.2
			c-5.4-4.9-9.2-10.6-6.6-18.4c0.4-1.1,1.2-2.1,1.9-3.1c0.1,1.1,0.5,2.3,0.4,3.3c-2.2,13.6,8.7,23.4,21.7,19
			c6.5-2.2,12.7-8.9,10.1-20.1c-1.4-5.9-10.2-12.4-16.3-11.5c-1,0.1-2.4,1.6-2.6,2.7C271.8,480.2,272,482.6,272,485.8z"/>
		<path fill="#F5F5F0" d="M272.3,185.5c1.2-0.4,2.2-0.8,3.1-1.1c7-1.9,8.6-0.6,8.6,6.4c0,2.8-0.3,5.7,0.1,8.5
			c0.6,4.9-2.5,5.7-5.7,4.5c-3-1.2-5.6-3.7-8.2-5.8c-0.8-0.7-1.1-2.4-2-2.6c-4.2-1.2-4.5-2.2-0.2-3.8c0.6-0.2,0.9-1.7,1-2.6
			c0.1-1.8,0.1-3.7,0.1-5.5c0-9.5,4.7-12.4,13.7-8.6c7.5,3.2,14.1,13.4,12.1,19.9c-3.1,10.1-9.2,16.6-21,16.1
			c-10.6-0.4-16.5-9.3-17.7-17.3c-0.3-1.9,0.4-3.9,0.8-5.8c0.3-1.1,1.1-2,1.7-3.1c0.3,1.1,0.6,2.3,0.8,3.4c0.5,3.9,0.3,8,1.6,11.5
			c2.4,6.7,10.8,10.3,18.1,8.3c8.8-2.4,12.6-8.8,12.7-16.3c0.1-7.6-7-14.9-14.2-15.7c-4.2-0.5-6.4,0.7-5.7,5.3
			C272.2,182.6,272.2,183.9,272.3,185.5z"/>
		<path fill="#F5F5F0" d="M67,198.4c-1.7,0.9-2.7,1.5-3.8,1.9c-5.9,2.3-8.2,0.8-8.2-5.5c0-2.7,0-5.3,0-8c0-6,0.7-6.9,6.5-5.7
			c2.4,0.5,4.6,2.7,6.7,4.4c1.6,1.3,3.1,2.9,4.4,4.6c0.5,0.6,0.2,1.7,0.3,2.6c-3.9,0.4-2.8,3.4-2.9,5.7c-0.1,1,0,2,0,3
			c0,10.4-1.3,11.4-11.6,8.6c-7.8-2.1-14.4-10.3-14.4-17.7c0.1-7.6,6.7-16,14.2-18c12-3.2,23.2,4.2,24.7,16.4
			c0.2,2.1-0.3,4.3-0.9,6.3c-0.2,0.9-1.3,1.5-2,2.3c-0.1-1-0.4-2-0.2-3c1.3-8.1-1.3-14.8-7.8-18.5c-6.3-3.5-12.5-2.9-18.3,1.2
			c-5.5,3.9-7.7,12-5.2,18.7c2.3,6.2,9.3,11.3,15.4,10.6c1.1-0.1,2.7-1.8,3-3C67.3,203.5,67,201.2,67,198.4z"/>
		<path fill="#F4F5F0" d="M115,407.9c0,0.8,0.1,1.7,0,2.5c-0.6,2.5-0.6,6.8-2,7.2c-4,1.3-8.3,0.6-11.2-3.3c-1.7-2.3-2-6.3-6.4-5.7
			c-0.2,0-0.8-1-0.8-1.1c0.6-0.5,1.2-1.4,1.8-1.3c3.5,0.1,3.5-2.1,3.5-4.6c-0.1-3.5-0.2-7,0.1-10.5c0.1-1.1,1.7-2.7,2.8-2.9
			c9.1-1.3,17.3,3.5,20.4,11.7c2.9,7.7-0.4,17.9-7.2,22.1c-8.1,5-17.7,4.1-24.2-2.5c-4.7-4.8-7-10.4-5-17.2c0.3-1,1.5-1.8,2.3-2.7
			c0,1,0.3,2.1,0.1,3.1c-1.5,9.1,3.4,16.9,12.2,19.6c6.4,2,14.3-1.5,18.3-7.9c3.7-5.9,2.7-13.1-2.2-18.4c-3.1-3.3-6.4-6.5-11.4-6
			c-1.4,0.2-3.6,1.1-3.8,2.1c-0.5,2.2-0.1,4.6,0.1,6.9c0,0.2,0.8,0.4,1.2,0.4c0.6-0.1,1.2-0.5,1.9-0.7c7.7-2.5,9.4-1.3,9.5,6.6
			C115,406.2,115,407.1,115,407.9z"/>
		<path fill="#F5F5F0" d="M67,454.5c-2.1,1-3.4,1.9-4.8,2.3c-5.5,1.6-7.2,0.3-7.2-5.4c0-2.8-0.2-5.7,0.1-8.5c0.2-1.9,1-5.4,1.6-5.4
			c2.8-0.1,6.1,0,8.4,1.4c3.1,1.9,5.6,5,8.2,7.7c0.3,0.3,0.3,1.7,0.2,1.7c-5.8,1.7-3.2,6.5-3.4,10c-0.3,9-1.9,10.7-10.6,8.6
			c-8.1-1.9-13.4-7.5-15.1-15.6c-1.5-7.4,2.5-13.2,7.9-17.7c5.4-4.5,15-4.9,20.7-1.5c7.6,4.5,11.9,14.5,9.1,21.2
			c-0.4,0.9-1.4,1.5-2.1,2.3c-0.1-1-0.4-2.1-0.2-3c1.5-9.1-2.6-16.7-10.6-19.6c-7.7-2.8-14.9,0.2-19.7,8.2
			c-2.9,4.9-2.8,10.3-0.1,15.1c3.1,5.5,8.5,8.3,14.9,8.7c0.9,0,2.5-1.8,2.7-2.9C67.3,459.7,67,457.3,67,454.5z"/>
		<path fill="#F5F5F0" d="M67,412.4c-1.4,0.8-2.2,1.3-3.1,1.7c-6.3,2.8-8.9,1.3-8.9-5.4c0-2.7-0.2-5.3,0.1-8
			c0.2-1.8,0.7-5.1,1.4-5.1c2.6-0.3,5.9-0.5,8,0.8c3.4,2.2,6.1,5.5,9,8.4c0.3,0.3-0.2,1.9-0.5,1.9c-3.9,0.5-2.8,3.5-2.9,5.8
			c-0.1,1.3,0,2.7,0,4c0,8.5-2.8,10.6-11.3,8.3c-8.3-2.3-16-12.3-14.6-19.8c1.8-9.9,9.9-16.7,19.5-17.3c10.9-0.7,22.1,13,18.8,22.3
			c-0.5,1.3-1.5,2.4-2.2,3.6c-0.1-1.3-0.5-2.5-0.3-3.7c1.4-9.6-5-18.7-14-19.8c-9.2-1.1-18.3,6.3-18.6,15.9c-0.4,9.5,7,16.6,16.4,17
			c1,0,2.9-1.5,3.1-2.6C67.3,417.9,67,415.4,67,412.4z"/>
		<path fill="#F5F5F0" d="M67,497c-1.6,1.2-2.1,1.8-2.8,2.2c-5.6,2.9-9.2,0.8-9.2-5.3c0-2.7-0.2-5.3,0.1-8c0.2-1.9,0.9-5.4,1.5-5.5
			c2.8-0.2,5.9,0.2,8.4,1.3c1.7,0.8,2.7,3.2,4,4.8c0.7,0.8,1.4,2,2.4,2.2c3.3,0.9,3.4,1.6,0.4,3.3c-1,0.6-1.6,2.3-1.8,3.5
			c-0.3,3-0.1,6-0.1,9c-0.1,4.8-2.6,6.9-7.2,6.3c-8.6-1.2-16.1-7.7-18.4-16.2c-2.4-8.7,6.5-20.7,15.9-21.8
			c13.5-1.7,20.7,7.2,22.6,17.4c0.2,1.1,0.3,2.5-0.1,3.4c-0.7,1.7-1.9,3.1-2.8,4.7c0-1.5-0.1-3,0-4.5c1-9.3-5.7-18.3-14.3-19
			c-9.2-0.8-18.4,7.1-18.4,16.3c0,9.1,7.1,15.5,14.9,16.7c3.6,0.5,5.4-0.6,4.9-4.6C66.8,501.6,67,499.8,67,497z"/>
		<path fill="#F5F5F0" d="M224,404.8c0-0.5-0.1-1,0-1.5c0.9-2.7-2.2-6.7,2.2-8.2c4.7-1.6,10.3,1.3,12.6,5.6c0.8,1.4,2.5,2.3,3.8,3.4
			c0.6,0.5,1.1,1,1.7,1.5c-0.6,0.5-1.3,1.3-1.9,1.3c-3.5-0.1-3.5,2.1-3.4,4.6c0.1,3.5,0.2,7-0.1,10.5c-0.1,1.1-1.7,2.7-2.9,2.9
			c-9.9,1.4-20.4-6.1-21-14.8c-0.9-14.1,5.8-22.1,18.6-22.1c12.3,0,21.6,11.4,18.4,22.5c-0.3,1.1-1.3,2-1.9,3
			c-0.1-1.1-0.4-2.3-0.3-3.4c1.1-7.4-1.8-14.1-8.1-17.9c-5.6-3.5-12.5-3.1-18.2,1c-4.8,3.4-7.6,11.3-6,16.9
			c1.9,6.7,8.8,12.7,15,12.8c1.3,0,3.8-0.7,3.8-1.3c0.2-2.4-0.2-4.9-0.6-7.2c0-0.2-2.3-0.2-3.5,0.1c-7.3,1.7-8.2,1.1-8.2-6.1
			C224,407.1,224,406,224,404.8z"/>
		<path fill="#F4F5F0" d="M224,447c0-0.7-0.1-1.4,0-2c0.6-2.7,0.5-6.8,2.1-7.6c4.2-2.2,9.4,0.2,11.8,4.6c1.2,2.2,1.8,4.7,5.1,4.3
			c0.4,0,0.9,0.8,1.3,1.3c-0.5,0.4-0.9,1.3-1.4,1.2c-4.9-0.2-3.9,3.3-4,6.2c0,2.3-0.2,4.7,0,7c0.4,4-1.5,5.1-5.3,5.1
			c-10.2,0-18.6-7.3-18.7-16.6c-0.1-13,6.6-19.5,18.3-20.7c12.1-1.2,22.6,14.5,19,22.5c-0.5,1.2-1.6,2.2-2.4,3.3
			c0-1.2-0.3-2.4-0.1-3.5c1.5-9.3-4.6-18.4-13.2-19.9c-9.4-1.6-17.9,4.5-19.5,14.3c-1.5,9,6.9,18.4,16.6,18.6c1,0,2.7-0.8,2.8-1.4
			c0.3-2.4,0-4.8,0-7.2c-1.2,0.1-2.4,0.1-3.6,0.2c-1.3,0.1-2.6,0.3-3.9,0.5c-4,0.6-5.5-1-5-5C224.2,450.4,224,448.7,224,447z"/>
		<path fill="#F5F5F0" d="M67,70.6c-2,0.7-3.2,1.2-4.4,1.6c-6.4,2.1-7.6,1.2-7.6-5.5c0-2.2-0.3-4.4,0.1-6.5c0.4-2.5-1.9-6,2.2-7.1
			c4.7-1.3,8.9,0.7,11.1,4.5c1.2,2.1,2.9,3.8,4,5.1c-0.8,2.7-1.6,5.6-2.3,8.5c-0.2,0.9,0,2,0,3c-0.1,8.1-2.5,9.8-10.5,8.1
			c-10.4-2.1-15.8-12.7-15.4-18.9c0.6-9.2,9.9-18.5,19.3-18.3C76.9,45.5,84.9,57,82.1,68.8c-0.2,1-1.5,1.8-2.3,2.7
			c0-1-0.3-2.1-0.1-3.1c1.3-8.1-1.5-14.7-7.9-18.4c-5.6-3.3-13.1-2.6-18.7,1.6c-4.7,3.6-6.9,11.2-5,17.5c1.9,6.2,7.5,10.6,13.4,11
			c3.9,0.3,6.1-0.7,5.5-5.1C66.8,73.7,67,72.3,67,70.6z"/>
		<path fill="#F5F5F0" d="M272,443c1.6-1.2,2.1-1.9,2.8-2.2c5.6-2.9,9.1-0.8,9.2,5.3c0,2.7,0.2,5.3-0.1,8c-0.2,1.9-0.9,5.4-1.5,5.5
			c-2.8,0.2-5.9-0.2-8.4-1.3c-1.7-0.8-2.7-3.2-4.1-4.8c-0.7-0.8-1.4-2-2.3-2.2c-3.2-0.8-3.5-1.6-0.5-3.3c0.9-0.5,1.5-1.9,1.8-3
			c0.3-1.4-0.1-3,0.1-4.5c0.5-3.4,1.2-9.7,1.9-9.7c5-0.1,10.6-0.1,14.8,2.1c7.4,3.9,10.8,13.8,8.3,20c-4.2,10.6-12.3,15.7-22.3,14.1
			c-7.9-1.2-15-9.3-15.7-17.8c-0.1-0.8-0.1-1.7,0.2-2.5c0.8-1.8,1.8-3.5,2.8-5.2c0,1.7,0.1,3.3-0.1,5c-0.6,8.2,3.5,14.8,10.6,17.2
			c9,3.1,16.3-1.1,20.1-7.5c2.8-4.7,3.1-10.3,0.2-15.2c-3.1-5.1-7.6-8.8-14-9.1c-2.7-0.1-4.1,0.7-3.9,3.6
			C272.1,437.7,272,439.9,272,443z"/>
		<path fill="#F5F5F0" d="M67,155.9c-3.2,0.8-5.8,1.6-8.5,2c-2.5,0.4-3.6-0.8-3.5-3.4c0.1-4.3,0.1-8.7,0-13
			c-0.1-2.5,0.8-3.5,3.4-3.6c5-0.2,8.7,1,10.7,6.2c0.6,1.6,2.7,2.7,3.3,3.3c-0.8,3.2-1.7,6.1-2.3,9c-0.2,0.9,0,2,0,3
			c-0.1,8.6-3.4,10.7-11.5,7.9c-6-2.1-10.4-5.5-12.7-11.5c-4.4-11.3,4.1-24.2,16.2-24.8c12.9-0.6,18.9,6.3,20.9,17.3
			c0.1,0.8,0.4,1.8,0.1,2.5c-0.8,2-1.9,3.9-2.8,5.8c-0.1-1.8-0.3-3.6-0.1-5.3c1.1-9-5.6-17.3-14.5-18.2c-11.1-1.1-17.8,7.5-18.3,16
			c-0.5,8.5,8.3,17,16.6,16.5c1.1-0.1,2.8-1.7,3.1-2.9C67.3,160.5,67,158.1,67,155.9z"/>
		<path fill="#F5F5F0" d="M66.5,369.6c-0.9,0.5-1.8,1-2.6,1.4c-6.3,2.8-8.9,1.3-8.9-5.5c0-2.7-0.2-5.3,0.1-8c0.2-1.8,0.6-5,1.4-5.1
			c2.5-0.5,5.7-0.7,7.6,0.5c3.5,2.3,6.3,5.7,9.4,8.7c0.3,0.3,0,1.6-0.1,1.7c-5.4,1.3-2.6,5.6-3.3,8.6c-0.1,0.6,0,1.3,0,2
			c0,8-2,9.8-9.8,7.9c-8.4-2.1-14.2-7.5-16-16c-1.6-7.6,5.2-19,15.6-20.7c11.3-1.8,19.9,4.1,22.7,15.2c0.4,1.6,0.7,3.4,0.3,4.9
			c-0.5,1.9-1.8,3.6-2.8,5.3c0-1.6-0.2-3.3-0.1-4.9c1-11.2-7-19.4-18.1-18.6c-7.3,0.5-14.5,8.5-14.7,16.3c-0.2,7,6,14.5,12.8,15.7
			C67.7,380.4,68,380,66.5,369.6z"/>
		<path fill="#7FECDF" d="M274.8,282c-1.3-0.5-3.1-0.6-3.7-1.6c-5.1-6.9-9.9-14-14.8-21c-2.7-3.9-5.6-7.7-8.3-11.6
			c1.3-4.7,2.7-9.3,4-14c7.4,10.7,15.1,21.2,22,32.1C274.3,271.3,274.5,276.7,274.8,282z"/>
		<path fill="#F5F5F0" d="M266.5,150.6c0.9-2.4,1.8-4.4,2.5-6.6c0.3-1.1,0.1-2.3,0.1-3.5c0-9.7,4.5-12.5,13.6-8.7
			c7.5,3.1,13.7,13.2,12.3,19.9c-1.8,8.6-10.3,16.1-18.5,16.2c-9.6,0.2-17.2-5.5-19.4-14.6c-1.4-5.8-1.3-6.6,2.4-13
			c0,2.6,0.2,3.9,0,5.1c-1.8,10,4.4,18.6,14.5,19.9c8.9,1.1,17.8-6.4,18-15.9c0.2-8.4-6.9-16.6-15.9-16.4c-1.3,0-3.4,0.8-3.6,1.5
			c-0.5,2.2-0.2,4.6-0.2,6.9c1.3-0.1,2.7-0.1,3.9-0.4c6.6-1.3,8-0.3,8,6.4c0,2.5,0,5,0,7.5c0,6-3.4,8-8.7,5.1
			c-1.6-0.8-2.9-2.2-4.1-3.5C269.2,154.4,267.6,152,266.5,150.6z"/>
		<path fill="#F5F5F0" d="M67,113.8c-3,0.8-5.7,1.7-8.4,2.2c-2.4,0.4-3.7-0.6-3.6-3.3c0.1-3.3-0.2-6.7,0.1-10c0.2-2.3-2-5.9,2.2-6.5
			c4.2-0.6,8.3-0.4,10.8,4.1c1.2,2.2,3,4.1,4.7,6.4c-4.6,1.9-2.7,6.7-2.8,10.7c-0.2,8.1-3.1,10.2-11,7.8c-7.5-2.2-12.2-7-14.6-14.3
			C41.9,103,50.6,90.1,59.1,89c13.2-1.7,20.7,3.5,23.5,16.4c0.3,1.4,0.6,3.1,0.2,4.4c-0.6,1.7-1.8,3.1-2.8,4.7c0-1.5-0.1-3,0-4.5
			c1.1-9.7-5.2-18-14.2-19c-9.4-1-17.7,5.8-18.7,15.2c-0.9,8.3,8.7,18.3,16.9,17.3c1.1-0.1,2.6-1.9,2.9-3.2
			C67.3,118.3,67,116.1,67,113.8z"/>
		<path fill="#F4F5F0" d="M242.9,63.6c-4,0-4.1,3.1-3.9,6.5c0.1,2.3,0,4.7,0,7c0,5.6-0.9,6.3-6.4,5.9c-8.8-0.7-16.2-6.9-17.5-14.5
			c-1.7-10.4,2.8-17.6,12.3-21.8c7-3.1,12.7-1.1,17.9,3.2c5.9,4.8,9.4,10.8,6.8,18.8c-0.3,1.1-1.3,1.9-2,2.9
			c-0.2-1.2-0.6-2.4-0.4-3.5c1.4-7.7-1.8-15.1-8.1-18.2c-7.1-3.6-15.4-2.4-20,3.4c-4.2,5.2-6.2,11.2-3,17.6c2.7,5.3,6.8,9,13.2,9.2
			c3.3,0.1,6.5-4.4,5.1-7.4c-0.3-0.5-1.8-0.9-2.7-0.7C224,74,224,74,224,63.8c0-0.8-0.2-1.7,0-2.5c0.8-2.7-2.3-6.7,2.2-8.2
			c4.6-1.5,10,1.1,12.4,5.2C239.7,60.1,241.3,61.6,242.9,63.6z"/>
		<path fill="#F5F5F0" d="M272,100.6c1.6-0.6,2.5-1,3.4-1.3c7-1.8,8.6-0.6,8.6,6.5c0,2.7,0,5.3,0,8c0,5.1-1.4,6.4-6.3,4.7
			c-2.8-1-5.2-3.3-7.4-5.3c-1.7-1.5-2.9-3.6-3.6-4.6c0.8-2.6,1.7-4.8,2.3-7.1c0.3-0.9,0-2,0-3c0-9.7,4.9-12.7,14-8.6
			c7.3,3.3,13.3,13.1,11.9,19.7c-1.7,8.2-11,16.2-19.2,16.3c-9.1,0.2-16.8-5.7-18.7-14.7c-0.6-2.9-0.2-6.1,0.1-9.2
			c0.1-0.8,1.2-1.5,1.8-2.3c0.2,1,0.9,2.1,0.7,3c-1.2,4.8-0.6,9.1,2.1,13.3c3.5,5.5,8.6,7.5,14.8,7.1c7.3-0.4,12.1-4.4,14.4-11.2
			c3.5-10.5-3.7-18.7-12.2-20.9c-5.3-1.4-6.6-0.1-6.6,5.2C272,97.5,272,98.7,272,100.6z"/>
		<path fill="#F4F5F0" d="M95.6,64.3c4.3,0.4,4.6-2.4,4.4-5.7c-0.2-2.8,0.1-5.7-0.1-8.5c-0.3-4.1,2-5.5,5.5-5.1
			c8,0.8,14.5,4.6,17.5,12.1c2.9,7.2,1.9,14.7-4,20.2c-5.2,4.8-11.5,7-18.8,4.5c-10-3.4-16.3-13.6-13.2-21.8c0.4-1,1.5-1.8,2.3-2.6
			c0,1,0.2,2.1,0.1,3.1c-1.4,7.4,1.5,13.3,7.5,17.2c5.1,3.4,11.1,3.3,16.6,0.4c5.9-3.2,9-8.3,8.7-15.1c-0.3-7.7-7.2-14.8-14.7-15.1
			c-1.3,0-3.6,0.4-3.9,1.2c-0.8,2.5-0.8,5.1-1.2,7.7c0.7,0,1.4,0.2,2.1,0.1c1.1-0.2,2.2-0.9,3.3-1c7-0.7,7.3-0.4,7.3,6.6
			c0,3-0.1,6,0,9c0.2,3.7-1.8,4.7-5,4.3c-4.5-0.6-8.2-2.1-10-6.9C99.4,67.4,97.4,66.2,95.6,64.3z"/>
		<path fill="#F4F5F0" d="M94,149.2c6,0.5,6.3-2.3,6-5.5c-0.1-1.3,0-2.7,0-4c0-8.7,3.9-11.2,12.2-8c8.6,3.3,13.3,12.1,11.7,21.9
			c-1.2,7.3-9,14.1-16.9,14.5c-9.3,0.5-18-5.4-19.9-14c-0.7-3.1-0.2-6.5,0-9.7c0-0.6,1.2-1.2,1.9-1.8c0.1,0.9,0.6,1.8,0.4,2.6
			c-3.1,10.8,6.9,22.4,19.6,19.9c7.3-1.4,13.6-9.4,12.9-16.7c-0.8-8.5-7.7-15.5-15.1-15.2c-1.3,0.1-3.4,0.7-3.6,1.5
			c-0.8,2.3-0.8,4.8-1,7.3c0,0,1.3,0.4,2,0.2c1.3-0.2,2.5-1,3.7-1.1c6.9-0.5,7-0.4,7,6.5c0,2,0.3,4-0.1,6c-0.4,2.5-0.5,6.2-2.1,7.2
			c-3.3,2-9.6-0.9-11.7-4.4c-0.7-1.1-0.7-2.7-1.6-3.6C98.6,151.6,97,151,94,149.2z"/>
		<path fill="#F5F5F0" d="M242.9,148.5c-3.8,0.1-4.2,3-4,6.5c0.1,1.8,0,3.7,0,5.5c0,7.5-1.5,8.8-8.9,7.3
			c-7.7-1.5-14.2-7.8-15.1-14.8c-1.3-9.7,2.4-17.6,10.8-20.9c6.3-2.4,13.2-2.8,18.9,2.1c5.7,5,10.1,10.8,7.3,19.1
			c-0.4,1.1-1.3,2-1.9,3c-0.2-1.3-0.7-2.6-0.4-3.9c1.3-7.3-1.5-14.3-7.6-17.5c-5.5-2.9-12.9-3.9-19.5,1.9
			c-4.6,4.1-6.7,12.3-4.3,18.3c2.2,5.6,10.2,11.2,15.7,10.2c1-0.2,1.6-4.2,1.9-6.5c0.1-0.5-1.6-1.4-2.5-1.9
			c-0.3-0.2-0.9,0.3-1.4,0.4c-6.9,1.7-7.9,0.9-7.9-6c0-1.8-0.2-3.7,0.1-5.5c0.4-2.7,0.5-6.8,2.1-7.7c4.5-2.3,9.3,0.3,12.1,4.9
			C239.3,145.2,241.1,146.6,242.9,148.5z"/>
		<path fill="#F5F5F0" d="M243,106.5c-3.8,0.1-4.2,3-4,6.5c0.2,2.3-0.2,4.7,0.1,7c0.6,4.8-1.9,6.2-6.2,6
			c-8.5-0.4-16.3-6.7-17.8-14.3c-1.8-9.5,2.1-18,10.6-21.5c6.5-2.6,13.5-2.8,19.3,2.2c5.8,5,9.8,11,7,19.2c-0.3,1-1.4,1.8-2.2,2.7
			c0-1-0.2-2.1-0.1-3.1c1.6-9.8-3.7-18.3-12.7-20.2c-9.2-2-16.6,2.9-19.6,12.7c-2.5,8.2,4.1,18.9,15.9,19.6c0.7,0,2.2-0.8,2.2-1.3
			c0.2-2.4,0-4.9-0.1-7.4c-1.1,0.2-2.2,0.2-3.2,0.5c-6.9,2.2-8.4,1.2-8.4-5.8c0-1.8-0.2-3.7,0.1-5.5c0.4-2.7,0.5-6.8,2.1-7.7
			c4.5-2.3,9.3,0.3,12.1,5C239.3,103.2,241.1,104.6,243,106.5z"/>
		<path fill="#F4F5F0" d="M272,57.6c1.9-0.7,3-1.2,4.1-1.4c6.6-1.4,7.9-0.3,7.9,6.4c0,2.2,0.2,4.4-0.1,6.5c-0.3,2.3-0.9,4.5-1.4,6.8
			c-3.2-0.9-6.6-1.5-9.7-2.7c-1-0.4-1.5-2.1-2.3-3.1c-1.4-1.8-2.8-3.5-4.2-5.2c4-1.9,3.6-6.4,3.7-10.4c0.2-9.8,3.3-11.7,12.5-7.6
			c6.5,2.9,10.7,8.1,12.4,14.8c1.7,6.8-5.6,18.1-12.5,20.2c-12.6,3.9-23.7-2.6-26-15.6c-0.5-2.6,0.5-5.5,0.9-8.3
			c0.1-0.5,0.9-0.8,1.3-1.2c0.4,0.6,1.2,1.3,1.2,1.9c-0.1,2-0.7,3.9-0.7,5.9c-0.1,5.9,5.1,13.4,10.4,15.2c6.7,2.2,15-0.2,18.9-5.6
			c8.5-11.5-0.3-24.7-10-26c-5.7-0.8-6.4-0.2-6.4,5.5C272,54.7,272,55.8,272,57.6z"/>
		<path fill="#F4F5F0" d="M96.3,107.5c4.1,0.1,4-3.2,3.7-6.6c-0.1-1-0.1-2,0-3c0.3-2.9,0.3-8,1.2-8.2c3.7-0.7,8.1-0.9,11.6,0.4
			c8.7,3.2,12.8,12.1,11,21.6c-1.4,7.4-9.9,14-18.4,14.2c-8.4,0.2-16.7-6-18.5-14.4c-0.6-2.8-0.3-5.8,0-8.7c0.1-0.8,1.3-1.6,2-2.4
			c0.1,1,0.5,2,0.3,3c-2,12.5,7.6,21.9,20,19.5c7.3-1.4,13.5-9.7,12.6-16.9c-1-8.6-8.3-15.6-15.8-14.9c-1.4,0.1-3.6,1.2-3.8,2.1
			c-0.5,2.2,0,4.6,0.1,6.9c0.7-0.1,1.4-0.1,2.2-0.2c2.4-0.3,4.9-1,7.3-0.8c1.2,0.1,2.9,2,3,3.2c0.4,4.3,0.4,8.7,0,13
			c-0.1,1.3-2.2,3.4-3.5,3.5c-4.4,0.5-8-1.3-10.5-5.2C99.5,111.5,97.8,109.5,96.3,107.5z"/>
		<path fill="#95EFCD" d="M156,196.1c11.4,16.3,22.8,32.5,34.2,48.8c0.4,0.6,0.6,1.5,0.8,2.3c-1.4,1-2.8,1.9-4.2,2.9
			c-2.6,1.2-3.6-1-4.6-2.5c-9.2-13.6-18.7-27.1-28.1-40.6c-1-1.5-2.3-3-1.2-5C154,200,155,198,156,196.1z"/>
		<path fill="#98F0CA" d="M153,201.9c3.3,5.1,6.4,10.3,9.8,15.3c6.9,10.1,13.8,20.1,20.8,30.1c0.8,1.1,2.1,1.8,3.2,2.7
			c-1.9,1.3-3.9,2.7-5.8,4c-2.1-2.3-4.4-4.3-6.2-6.8c-8.6-12.2-17.1-24.5-25.6-36.8c-0.3-0.4-0.2-1-0.3-1.4
			C150.3,206.6,151.6,204.3,153,201.9z"/>
		<path fill="#7BEBE3" d="M274,266c-2.5-3-5.2-5.9-7.5-9c-4.5-6.3-8.8-12.6-13.1-19.1c-0.8-1.2-1-2.7-1.5-4
			c1.2-4.9,2.4-9.8,3.7-14.7C266.4,233.4,272.7,248.8,274,266z"/>
		<path fill="#C2F6A6" d="M97.1,286.1c-1.3,2.3-2.6,4.7-3.9,7c-2.1,0.7-3.2-0.8-4.1-2C81.6,280.4,74.2,269.8,67,259
			c0.9-3.7,1.8-7.4,2.8-11.1c2.6-0.7,3.5,1.4,4.6,3c7.1,10.2,14.2,20.5,21.4,30.7C96.7,282.9,97.6,284.3,97.1,286.1z"/>
		<path fill="#93EFCE" d="M259.9,332c-2.3,3.3-4.6,6.7-6.9,10c-1.8,0.6-2.8-0.7-3.7-1.9c-6.6-8.9-12.6-18.4-19.2-27.3
			c-0.4-0.5-0.6-1.2-0.2-1.9c-0.1-2.8,0.4-4.7,4-3c4.6,2.2,9.4,4.1,14.1,6.1C250.7,320.8,255.4,326.3,259.9,332z"/>
		<path fill="#C5F7A3" d="M67,259c2.2,2.4,4.7,4.7,6.5,7.4c5.3,7.4,10.2,15.1,15.4,22.6c1.1,1.6,2.8,2.8,4.2,4.2
			c-1.7,3.3-3.5,6.6-5.2,9.8c-3.5-2.6-5.7-6.4-8.1-9.9c-3.4-5.1-7.1-10-10.5-15.1c-1.1-1.7-2.6-3-4.3-4C65.8,269,66.4,264,67,259z"
			/>
		<path fill="#ACF3B9" d="M125.9,234c-1.6,2.7-3.1,5.4-4.7,8.1c-2.7,0.6-3.9-1.5-5-3.2c-6.7-9.9-13.5-19.7-20.3-29.4
			c-0.9-1.3-2.1-2.7-0.8-4.5c2-2,4-4,6-6c3.5,2.9,5.5,6.9,8.1,10.5C114.7,217.6,120.5,225.7,125.9,234z"/>
		<path fill="#A7F2BD" d="M125.9,234c-0.8-0.5-2-0.7-2.5-1.4c-7.4-10.7-14.8-21.4-22.1-32.2c-0.3-0.4-0.2-1-0.3-1.4
			c2.3-1.7,4.6-3.5,6.9-5.2c5,3.9,7.4,9.7,11,14.6c4.1,5.4,7.7,11.2,11.9,16.6C129.2,228,127.5,231,125.9,234z"/>
		<path fill="#98F0CA" d="M229.9,310.9c6.7,9.3,13.3,18.6,20,27.9c0.9,1.2,2,2.1,3,3.2c-2,2.3-4.1,4.7-6.1,7c-2.5,1.4-3.8-0.6-4.9-2
			c-4.9-6.9-9.6-13.9-14.3-20.9c-1-1.5-1.7-3.3-0.6-5.1C228,317.6,228.9,314.2,229.9,310.9z"/>
		<path fill="#CDF89C" d="M87.8,327.9c3.6,4.7,7.3,9.3,10.8,14.1c4.5,6.2,8.9,12.4,13.2,18.7c0.9,1.4,0.9,3.5,1.3,5.2
			c-13.1-7.8-23.1-18.8-31.4-31.3c-0.5-0.7,0-2.8,0.8-3.4C83.9,329.9,86,329,87.8,327.9z"/>
		<path fill="#A4F2BF" d="M139,227.1c6.2,9.1,12.4,18.2,18.7,27.1c2.5,3.5,5.6,6.6,8.4,9.9c-3.1,2-5.2,6.6-10.1,3.8
			c-6.2-9.1-12.7-18.1-18.8-27.3c-1.1-1.7-2.9-3.3-2.3-5.7C136.3,232.3,137.7,229.7,139,227.1z"/>
		<path fill="#92EFCF" d="M227.8,287.9c-0.3,1.3-0.7,2.5-0.9,3.8c-0.7,4.1-2.6,4.9-5.9,2.2c-8.3-11.7-16.6-23.5-24.4-35.5
			c-0.9-1.4-1.8-2.9-0.6-4.6c1.7-1.2,3.4-2.5,5-3.7c3,1.8,4.3,5,6.2,7.7C214.1,267.9,221.2,277.8,227.8,287.9z"/>
		<path fill="#F5F5F0" d="M139.7,390.7c-8.7,8.2-9.2,13.2-6.8,21.7c1.9,6.9,8.1,9.3,14.6,10.4c1,0.2,3-0.9,3.1-1.6
			c0.3-2.4,0-4.9,0-7.3c-1,0.3-2,0.5-3.1,0.8c-6.2,2-8.5,0.4-8.5-6.1c0-2-0.2-4,0.1-6c0.4-2.5,0.6-6.7,2-7.2c4-1.3,8.2-0.6,11.2,3.3
			c1.6,2.2,1.8,6,5.9,5.6c-0.4,0.9-0.6,1.8-1.2,2.6c-0.9,1.4-2.6,2.6-2.8,4.1c-0.5,2.8-0.4,5.7-0.1,8.5c0.4,4.6-1.7,5.8-5.9,5.6
			c-7.5-0.3-15.6-5.5-18.1-12.1c-2.8-7.5-0.9-14.5,5.6-20.1C136.9,391.9,138.4,391.4,139.7,390.7z"/>
		<path fill="#A0F1C3" d="M215,332c-1.8-2-3.7-3.7-5.2-5.9c-7.5-10.7-14.9-21.5-22.2-32.3c-0.9-1.3-1-3.2-1.5-4.8
			c4,1.6,8,3.3,12,4.9c6.4,9.9,13.4,19.2,19.8,29.1C216.9,326,215.9,329,215,332z"/>
		<path fill="#F5F6F0" d="M198.9,164.9c12.4-9.6,10-23.9,0.2-29.7c-2.7-1.6-6.7-2.2-9.8-1.6c-1.1,0.2-1.2,5.4-1.8,9
			c2.2-0.7,3.3-1.2,4.4-1.5c6.8-1.6,8.2-0.5,8.2,6.5c0,3.2-0.2,6.3,0,9.5c0.2,3.3-1.5,4.5-4.2,3.7c-2.9-0.9-5.8-2.1-8.2-4
			c-2.6-2-4.6-4.7-7.1-7.5c4.8,0.2,4.8-3,4.5-6.5c-0.1-1,0-2,0-3c0-9.7,0.5-10.1,10-8.9c6.9,0.9,13.3,7.3,14.8,15
			c1.4,7-2.2,15.2-8.2,18.5C200.9,164.9,199.8,164.8,198.9,164.9z"/>
		<path fill="#B3F4B2" d="M143,290c8.6,12.7,17.2,25.4,25.7,38.2c1.1,1.7,1.5,3.9,2.3,5.9c-11.7-11.9-23.4-23.9-35.2-35.8
			c-1.9-1.9-1.5-2.9,0.5-4.1C138.6,292.9,140.8,291.4,143,290z"/>
		<path fill="#BFF6A8" d="M97.1,286.1c-8.4-12.3-16.8-24.5-25.3-36.7c-0.4-0.6-1.3-1-2-1.5c0.4-1.2,0.8-2.3,1.3-3.5
			c0.9,0.6,2,1.1,2.7,1.9c8,8,16,16,23.9,24c5.7,5.7,5.7,6,1.3,12.9C98.5,284.3,97.7,285.2,97.1,286.1z"/>
		<path fill="#C8F7A0" d="M65.1,274c1.2,0.1,2.9-0.2,3.4,0.4c6.6,9.5,13,19,19.5,28.6c-1.7,2.9-3.3,5.9-5,8.8
			c-4.7-4.2-7.3-10-11.2-14.9c-2-2.5-3.5-5.6-5.9-7.9C65.7,284,65.4,279,65.1,274z"/>
		<path fill="#B2F4B4" d="M117.8,248.9c-0.6,2.3-1.7,3.3-4.2,2c-2.4-1.3-5.1-2.1-7.6-3.1c-6.3-9-12.3-18.2-18.8-27.1
			c-1-1.4-2.5-2.8-1.3-4.9c1.3-1.6,2.6-3.3,3.9-4.9c1.7-0.7,2.5,0.6,3.2,1.6c8.2,11.2,15.9,22.8,23.8,34.2
			C117.3,247.3,117.4,248.2,117.8,248.9z"/>
		<path fill="#AFF3B6" d="M117.8,248.9c-6.3-8.6-12.5-17.3-18.8-25.9c-3-4.1-6.1-8.1-9.2-12.1c1.7-2,3.5-3.9,5.2-5.9
			c3,4.7,6,9.5,9.1,14.1c4.3,6.5,8.7,12.9,13.2,19.3c1,1.4,2.6,2.5,3.9,3.7C120,244.4,118.9,246.7,117.8,248.9z"/>
		<path fill="#96EFCC" d="M196,254c3.4,5.6,6.7,11.3,10.3,16.8c4.1,6.2,8.5,12.1,12.6,18.3c1,1.5,1.4,3.3,2.1,5
			c-4-1.6-8.1-3.2-12.1-4.8c-5.3-8.6-11.3-16.7-17-25.1c-1.2-1.8-3.5-3.4-1.9-6.1C192,256.6,194,255.3,196,254z"/>
		<path fill="#A4F2C0" d="M130.9,225c-1.7-1.6-3.8-3-5.2-4.9c-6-8.7-11.9-17.5-17.8-26.2c2-1.5,4.1-3.1,6.1-4.6
			c3.3,2.1,4.8,5.8,7,8.8c4.7,6.5,9.1,13.3,13.8,19.9C133.5,220.3,132.2,222.7,130.9,225z"/>
		<path fill="#CBF89E" d="M66,289c0.8,0.3,1.9,0.3,2.3,0.8c5,7.3,9.8,14.6,14.7,21.9c-1.7,3.4-3.3,6.8-5.1,10.2c-1,2-2.3,2.5-3.3,0
			C70.2,311.4,66.2,300.7,66,289z"/>
		<path fill="#A0F1C3" d="M134.8,218c-1.4-1.3-3.1-2.4-4.1-3.9c-5.6-8.2-11.1-16.6-16.7-24.9c2.3-1.3,4.7-2.7,7-4
			c4.3,3.4,6.3,8.4,9.5,12.6c3,3.9,5.6,8.1,8.4,12.2C137.6,212.7,136.2,215.3,134.8,218z"/>
		<path fill="#9CF0C7" d="M227,321c0.3,1.1,0.3,2.4,0.9,3.3c4.9,7.4,9.9,14.8,15.1,22c0.9,1.2,2.6,1.8,3.9,2.7c-2,2-3.9,4-5.8,6
			c-2.2,1.4-3.4-0.3-4.5-1.6c-4.2-5.5-7.9-11.4-12.1-16.8c-1.1-1.4-1.3-3-0.5-4.6C225,328.2,226,324.6,227,321z"/>
		<path fill="#8DEED3" d="M206,247c3.1-3.7,5.2-3,7.8,0.9c4.6,7,9.4,14,14.9,20.4c3.8,4.4,2,8.3,1.1,12.6c-2.5,0.4-3.5-1.5-4.7-3
			c-6.3-8.5-11.9-17.4-18-26C206.2,250.5,204.6,249.1,206,247z"/>
		<path fill="#90EED1" d="M206,247c5.4,8.3,10.8,16.6,16.4,24.7c2.2,3.2,5,6.1,7.5,9.2c-0.7,2.3-1.3,4.7-2,7
			c-4.9-6.4-9.9-12.7-14.6-19.2c-4.3-6-8.2-12.3-12.2-18.5C202.7,249.2,204.3,248.1,206,247z"/>
		<path fill="#A7F2BD" d="M134.9,234.9c6.4,9.3,12.9,18.6,19.3,28c1,1.4,1.2,3.3,1.8,5c-4-1.7-8-3.3-12-5c-5-5.6-8.5-12.3-13-18.2
			c-0.6-0.8-0.7-1.9,0-2.8C132.3,239.6,133.6,237.2,134.9,234.9z"/>
		<path fill="#B5F4B1" d="M85.9,215.8c5.2,7.8,10.6,15.5,15.7,23.3c1.8,2.7,3,5.8,4.4,8.6c-4.4-1.9-8.7-3.8-13.1-5.7
			c-3.5-5.2-7.2-10.4-10.8-15.6c-0.7-1.1-1.7-2.1-1.2-3.6C82.6,220.6,84.3,218.2,85.9,215.8z"/>
		<path fill="#B4F4B2" d="M191,380.8c-2.8-4.9-5.4-9.9-8.4-14.6c-3.8-5.8-8-11.4-11.9-17.2c-1-1.4-1.2-3.4-1.7-5.1
			c10.9,11.1,21.8,22.2,33.5,34C198,379.1,194.5,380,191,380.8z"/>
		<path fill="#8EEED4" d="M237.8,281.6c6.8,9.4,12.8,17.8,18.9,26.2c-0.1,0.3-0.3,0.6-0.4,0.9c-7.3-3-14.7-5.9-21.9-9.1
			c-0.6-0.2-0.9-2-0.6-2.9C234.9,292,236.2,287.4,237.8,281.6z"/>
		<path fill="#87EDD9" d="M237.9,252c-0.9,3.6-1.8,7.2-3,12.1c-6.1-8.5-11.4-15.8-16.6-23.2c-0.4-0.5-0.1-2.2,0.5-2.7
			c1.9-1.5,4.1-2.7,6.2-4.1C230,239.6,234,245.8,237.9,252z"/>
		<path fill="#B3F4B3" d="M117.9,265.9c0.5-3.6,2.4-4.1,5.4-2.7c2.2,1,4.4,1.9,6.7,2.9c3.1,5.4,7.9,9.8,10,15.9
			c-2.4,1.6-4.8,3.3-7.2,4.9c-0.7,0.2-1.4,0.1-1.8-0.4c-4.8-5.9-9.2-12.1-13-18.7C117.6,267.3,117.5,266.5,117.9,265.9z"/>
		<path fill="#9CF0C6" d="M139,210c-0.7-0.3-1.8-0.4-2.2-1c-5.3-7.9-10.5-15.9-15.8-23.8c2.3-1.1,4.7-2.1,7-3.2
			c6.1,6.2,10.4,13.6,14.9,20.9C141.6,205.3,140.3,207.6,139,210z"/>
		<path fill="#99F0C9" d="M190,258c4.9,7.4,9.8,14.7,14.5,22.1c1.8,2.8,2.9,6,4.4,9.1c-3.3-1.4-6.6-2.8-9.9-4.1
			c-5.2-6.7-9.9-13.8-14.7-20.8c-0.5-0.7-0.7-1.5-0.3-2.4C186,260.6,188,259.3,190,258z"/>
		<path fill="#83ECDC" d="M237.9,252c-4.3-6-8.6-11.9-12.9-17.9c3-2.1,6-4.1,8.9-6.2c3.9,1.9,5.8,5.7,8.1,9.1
			C240.7,242,239.3,247,237.9,252z"/>
		<path fill="#9CF0C6" d="M217.8,323c-0.8-0.5-1.9-0.7-2.4-1.4c-5.5-8-10.9-16-16.3-24c-0.7-1-0.7-2.4-1.1-3.7
			c4.3,1.7,8.6,3.4,12.9,5.1c0.5,4,3.4,6.6,5.6,9.6c1.2,1.7,2.4,3.5,3.4,5.4C219.3,317,218.5,320,217.8,323z"/>
		<path fill="#A0F1C3" d="M224,331.9c3.2,5,6.2,10.2,9.6,15.1c2.1,2.9,4.9,5.4,7.4,8c-2.3,2-4.7,4-7,6c-0.2,0-0.4,0.2-0.5,0.1
			c-3.6-1.8-12.3-15.1-12.5-19.1C222,338.6,223,335.2,224,331.9z"/>
		<path fill="#F5F5F0" d="M141.4,165.2c-6.2-0.7-8.7-4.3-10.6-7.9c-3.7-6.8-1.7-16.2,3.9-21.5c6.4-6,16.8-6.1,23.3-2.7
			c6.2,3.3,10.3,12.7,8.9,19.8c-0.2,0.8-0.4,1.7-0.8,2.3c-0.4,0.6-1.1,0.9-1.6,1.3c-0.2-0.7-0.6-1.4-0.6-2.1
			c-0.1-3.4,0.6-7-0.3-10.1c-1.9-6.3-6.5-10.4-13.2-11.2c-7.6-0.9-13.4,2.5-16.8,9c-3.6,6.9-1.6,15.3,4.6,20
			C139,162.7,139.7,163.6,141.4,165.2z"/>
		<path fill="#F5F5F0" d="M199,391.3c5.4,0.5,10.3,6.8,11,12.9c0.9,7.8-2.5,13.7-8.9,17.6c-6.9,4.3-13.9,4.6-21.1-0.1
			c-6.6-4.4-8.6-10.6-8-18c0.1-0.8,0.3-1.7,0.7-2.3c0.6-0.8,1.4-1.4,2.2-2.1c0,0.9,0.3,1.8,0.1,2.7c-2.3,9.9,3,18.2,12.9,20.2
			c6.9,1.4,14-1.8,17.3-7.7c3.4-6.1,2.5-13.9-2.3-19C201.9,394.3,200.7,393.1,199,391.3z"/>
		<path fill="#F5F6F0" d="M188.9,399.3c0.7-0.3,1.6-0.7,2.6-1c6.9-1.8,8.5-0.6,8.5,6.5c0,2.2,0.2,4.3,0,6.5
			c-0.2,2.2-0.7,6.1-1.2,6.2c-3.2,0.2-6.6,0.1-9.5-1.1c-1.9-0.9-2.7-4-4.4-5.7c-1.2-1.3-3-1.9-4.6-2.8c1.5-1,3.5-1.6,4.3-3
			c0.8-1.4,0.2-3.6,0.5-5.3c0.3-1.7,1-3.4,1.5-5.1C187.2,395.8,187.9,397.3,188.9,399.3z"/>
		<path fill="#F5F6F0" d="M158,148.7c-5.7,0.5-3.8,5.2-4.1,8.9c-0.1,1.4-1,2.7-1.5,4.1c-0.5-1.1-0.7-2.4-1.5-3.2
			c-0.7-0.8-1.9-1.4-2.9-1.4c-1.4,0-2.9,0.7-4.3,0.9c-3.7,0.6-5.2-0.9-4.8-4.7c0.3-3,0.1-6,0.1-9c0-6.3,2.5-8.2,8.5-5.9
			c2.1,0.8,3.8,3,5.5,4.7C154.7,144.8,156.2,146.6,158,148.7z"/>
		<path fill="#B6F4B0" d="M117.9,265.9c5,7,9.9,14,14.9,21c-2.7,3.4-5.3,3.8-8.3,0.2c-2.4-2.9-5-5.7-8-8c-3.9-3-3.8-6-1.2-9.6
			C116.2,268.3,117.1,267.1,117.9,265.9z"/>
		<path fill="#99F0C9" d="M142.9,203c-5-7-9.9-14-14.9-20.9c2.3-1,4.7-1.9,7-2.9c5.2,4.7,8.5,10.7,11.8,16.8
			C145.5,198.3,144.2,200.6,142.9,203z"/>
		<path fill="#ABF3BA" d="M131,241.9c2.9,4.4,6,8.8,8.8,13.3c1.6,2.5,2.8,5.1,4.2,7.7c-5.7-2.2-11.3-4.4-17-6.5
			c-2.6-1-3.4-2.3-1.8-4.8C127.2,248.5,129,245.2,131,241.9z"/>
		<path fill="#8FEED2" d="M259.9,332c-2.4-2.6-5-5-7.2-7.8c-2-2.4-3.7-5.1-5.3-7.8c-0.3-0.5,0.4-1.6,0.7-2.4c4.9,1.9,9.8,4,14.7,5.7
			c2.5,0.8,3.3,1.8,1.8,4.2C262.9,326.5,261.4,329.3,259.9,332z"/>
		<path fill="#9BF0C7" d="M184,261.9c5,7.7,10,15.4,15,23.1c-4-1.6-8-3.2-12.1-4.8c-2.3-3.6-4.4-7.2-7-10.6
			c-0.9-1.2-2.2-2.6-0.9-4.4C180.7,264.1,182.3,263,184,261.9z"/>
		<path fill="#B9F5AE" d="M81,223c3.5,4.9,7,9.8,10.4,14.8c0.8,1.3,1.1,2.9,1.6,4.4c-5.6-2.1-11.2-4.1-16.7-6.4
			c-0.6-0.3-1.2-2.5-0.7-3.4C77.1,229.1,79.1,226.1,81,223z"/>
		<path fill="#96EFCC" d="M146.8,195.9c-3.9-5.6-7.9-11.2-11.8-16.8c3.3-1,6.6-2,10-3c1.1,4.3,4.2,7.5,6.8,10.8
			C150.1,190,148.5,193,146.8,195.9z"/>
		<path fill="#B9F5AE" d="M89.9,249.8c7,2.8,14,5.5,20.9,8.5c0.5,0.2,0.8,2.1,0.4,2.8c-5,8.3-2.8,8.8-9.8,2
			c-4.1-4-8.4-7.9-12.6-11.8C89.1,250.8,89.5,250.3,89.9,249.8z"/>
		<path fill="#F5F5F0" d="M64.7,339c-9.7-0.1-16.9-5.3-19.8-13.6c-2.3-6.8,0.6-15.1,7.3-20.1c0.8-0.6,2-0.6,3-0.8
			c-0.4,1-0.5,2.2-1.2,2.8c-5.4,4.5-7.7,9.9-6.2,17.1c1.7,8.1,10.7,13.6,18.8,11c0.5-0.1,1.6,0.4,1.6,0.5c-0.1,0.9-0.2,2.2-0.7,2.5
			C66.5,338.9,65.1,338.9,64.7,339z"/>
		<path fill="#BDF5AB" d="M104.2,290.1c4.4-7.9,4.4-7.9,10.8-1.6c6.8,6.8,6.8,6.8-1.7,11.9c-0.4,0.3-0.9,0.4-1.3,0.7
			C108.7,297.9,106.3,294.1,104.2,290.1z"/>
		<path fill="#AFF3B7" d="M140,282c-3.3-5.3-6.7-10.6-10-15.9c6.8,2.7,13.7,5.4,21.6,8.5C147.1,277.5,143.6,279.7,140,282z"/>
		<path fill="#A3F1C1" d="M221,342c4.3,6.3,8.7,12.7,13,19c-2,1.4-3.9,2.7-5.9,4.1c-4.8-3.2-7-8.5-10-13.1
			C219,348.7,220,345.3,221,342z"/>
		<path fill="#C1F6A7" d="M104.2,290.1c2.6,3.7,5.2,7.3,7.8,11c-3,2-5.9,4-8.9,6c-4.2,0.9-4.9-1.9-5.1-5.1
			C100.1,298,102.2,294,104.2,290.1z"/>
		<path fill="#F5F5F0" d="M68.3,218.7c-1.1,0.1-2.3,0.5-3.4,0.3c-10.5-1.8-20.3,10.1-16.7,21.5c1,3.1,4,5.5,6.1,8.2
			c0.5,0.7,0.9,1.6,1.4,2.3c-1-0.1-2.2,0.2-3-0.2c-5.1-2.7-9.7-12.7-8.5-18c1.9-8.3,9.1-15.3,16.5-15.8c2.5-0.2,5.1,0,7.6,0
			C68.3,217.6,68.3,218.1,68.3,218.7z"/>
		<path fill="#F5F6F0" d="M272.5,338.5c4.6-2.2,9.7-4.1,14.3-6.9c6.4-4,6.5-17.5,0.4-22c-1.4-1-1.9-3.1-2.8-4.7
			c1.5,0.9,3.3,1.5,4.6,2.8c6.7,6.5,7.7,13.8,3.3,21.6C287.9,336.8,280.2,340.2,272.5,338.5z"/>
		<path fill="#F5F5F0" d="M283.7,250.9c5.8-6.1,10.3-12.6,7-21.4c-2.7-7.3-8.7-10.6-19.2-10.5c1.6-2.2,5.2-2.7,9.8-1.4
			c7.1,2.1,13.4,10,13.8,17.2C295.3,241.1,290.6,248.3,283.7,250.9z"/>
		<path fill="#9FF1C4" d="M179,265.2c1.9,3,4,6,5.8,9.1c1,1.8,1.4,3.9,2.1,5.9c-6.1-2.3-12.2-4.6-19.2-7.3
			C172.1,270,175.5,267.6,179,265.2z"/>
		<path fill="#A6F2BE" d="M218,352c3.3,4.4,6.7,8.7,10,13.1c-2.1,1.3-4.2,2.6-6.2,3.8c-4.1-0.5-5-4.2-6.7-6.9
			C216,358.7,217,355.3,218,352z"/>
		<path fill="#81ECE1" d="M242,237c-2.7-3-5.4-6.1-8.1-9.1c4.3-3,8.5-6,12.8-8.9c0.3,0.2,0.6,0.5,0.9,0.7
			C245.8,225.5,243.9,231.2,242,237z"/>
		<path fill="#93EFD0" d="M151.8,187c-5-2.6-7.5-6.6-6.8-10.9c4.3-0.9,8.7-1.7,14.4-2.9C156.4,178.7,154.1,182.8,151.8,187z"/>
		<path fill="#9AF0C9" d="M220,314c-3.5-4.4-7-8.7-10.4-13.2c-0.1-0.2,0.9-1.2,1.4-1.8c0.8,0.2,1.6,0.4,2.3,0.7
			C223.4,303.8,223.4,303.8,220,314z"/>
		<path fill="#F5F6F0" d="M54.3,263.4c-1.4,2-2.7,4-4.1,5.9c-4.4,5.9-3.8,13.5,1.5,20c0.9,1.1,1.2,2.7,1.8,4.1
			c-1.3-0.8-2.9-1.3-3.9-2.4C40.9,281.6,42.4,270.9,54.3,263.4z"/>
		<path fill="#F5F6F0" d="M112.3,381.4c-3.1,0.2-6.2,0.7-9.3,0.6c-8.1-0.3-16.9-9.5-16.9-17.5c0-1,0.7-1.9,1.1-2.9
			c0.6,0.9,1.6,1.6,1.7,2.6c1,8.3,5.8,13.1,13.6,15.1c1.5,0.4,3.2,0.2,4.8,0.2c1.7,0,3.3,0,5,0C112.2,380.1,112.3,380.7,112.3,381.4
			z"/>
		<path fill="#F5F6F0" d="M286,293.3c7.5-9.9,8.1-19.6-0.5-29.2c5.8,2.6,9.6,8.4,9.4,14.1C294.7,284.5,291.6,289.5,286,293.3z"/>
		<path fill="#F5F5F0" d="M252.8,194.8c-3.3-5.5-5.2-11.7-9.3-14.9c-4.3-3.3-10.8-3.6-16.2-5.2c5.3-1,11-1.9,16.2,1.8
			C249.4,180.6,253.3,186.3,252.8,194.8z"/>
		<path fill="#F5F5F0" d="M55,234.1c0-1.5,0-3,0-4.5c0-5.4,2.7-7.3,7.8-5.5c0.7,0.3,1.2,1.3,1.7,2c-0.7,0.1-1.6,0.6-2.2,0.4
			c-4.6-1.7-5.8,0.4-5.3,4.5c0.4,3.5,1.1,7,1.4,10.5c0.1,0.7-0.9,1.5-1.4,2.2c-0.7-0.6-1.8-1.1-1.9-1.7
			C54.9,239.5,55.1,236.8,55,234.1C55,234.1,55,234.1,55,234.1z"/>
		<path fill="#ABF3BC" d="M215.1,362c2.3,2.3,4.5,4.6,6.8,6.9c-3.1,1.5-6.3,2.9-9.4,4.4c0.5-2.8,1-5.7,1.6-8.5
			C214.2,363.8,214.7,362.9,215.1,362z"/>
		<path fill="#F5F6F0" d="M275,329.9c7-1.8,7-1.8,6.9-9.2c0-2.1-0.5-4.3-0.5-6.4c0-0.6,0.8-1.2,1.2-1.8c0.4,0.6,1.3,1.1,1.3,1.7
			c0.1,5.1,0.3,10.3,0,15.4C283.7,332.7,280,333,275,329.9z"/>
		<path fill="#F5F6F0" d="M57,309.7c0,3.7,0.1,7.5,0,11.2c-0.2,3.3,0.2,5.6,4.4,5.2c0.7-0.1,1.4,0.9,2.1,1.3
			c-0.6,0.5-1.2,1.2-1.9,1.4c-4.6,1.5-6.6-0.1-6.6-5.1c0-4.7,0-9.4,0-14.1C55.7,309.7,56.3,309.7,57,309.7z"/>
		<path fill="#C7F7A6" d="M98,302c1.7,1.7,3.4,3.4,5.1,5.1c-3.7,2.7-7.3,5.4-11,8c-0.4-0.3-0.8-0.6-1.2-0.9
			C93.3,310.1,95.6,306,98,302z"/>
		<path fill="#BDF6A9" d="M300,478c-0.3,0-0.6,0-1,0c0-17.7,0-35.3,0-53c0.3,0,0.6,0,1,0c0,13,0,26,0,39
			C300,468.7,300,473.3,300,478z"/>
		<path fill="#F5F6F0" d="M276,228.4c7.5-2.3,8-2,8,4.5c0,4.4,0,8.8,0,13.1c-0.7,0-1.3,0-2,0c0-3.4,0-6.9,0-10.3
			C282,232.1,283.3,227.3,276,228.4z"/>
		<path fill="#F5F5F0" d="M178.8,161.1c-6.3-2.6-9.2-14.2-5.4-18.3c0.4-0.4,1.1-0.4,1.7-0.5c0.1,0.6,0.5,1.3,0.3,1.7
			C172.6,150.2,175.5,155.3,178.8,161.1z"/>
		<path fill="#F4F5F0" d="M161.3,394.8c1,0.8,2.8,1.4,3,2.3c1,4.7,1.7,9.5,2.2,14.3c0.1,0.6-1.4,1.4-2.1,2.1
			c-0.2-0.8-0.6-1.7-0.6-2.5C164.6,403,164.4,401.6,161.3,394.8z"/>
		<path fill="#F5F6F0" d="M100,183.1c0-1.9,0.1-3.8,0-5.7c-0.2-2.6,1-3.7,3.5-3.4c0.8,0.1,1.7-0.1,2.5,0c2.1,0.4,4.3,0.9,6.4,1.4
			c-2,0.2-4,0.5-6,0.6c-2.6,0.1-4.7,0.3-3.6,4c0.3,0.9-0.9,2.3-1.4,3.5C100.8,183.3,100.4,183.2,100,183.1z"/>
		<path fill="#F5F6F1" d="M238.5,373.4c1,7.9-2.7,11.1-9.4,8.4c-0.5-0.2-1-0.8-1.4-1.2c0.4-0.5,0.7-1.1,1.3-1.3
			C234.1,377.2,236.4,375.9,238.5,373.4z"/>
		<path fill="#F5F6F0" d="M85.4,191.4c1.1-2.1,2.1-4,3.2-6c0.1,2,0.5,4.1,0.3,6.1c-0.1,1.1-1.2,2-1.8,3
			C86.6,193.6,86.1,192.7,85.4,191.4z"/>
		<path fill="#F5F6F1" d="M252.6,361.8c0.1,0.5,0.4,1,0.3,1.4c-0.7,2.4-1.5,4.8-2.3,7.2c-0.5-0.2-1.4-0.6-1.4-0.7
			c0.6-2.8,1.4-5.5,2.1-8.2C251.8,361.6,252.2,361.7,252.6,361.8z"/>
		<path fill="#FAF9F8" d="M146.3,497.3c-1.8-0.4-3.3-0.5-3.3-0.7c-0.3-4.6-0.3-9.3-0.5-13.9c1.4,0.1,3-0.1,4.1,0.5
			c1.6,1,2.8,2.6,4.1,3.9c-0.9,0.6-1.8,1.3-2.7,1.9c-0.6,0.4-1.3,0.8-1.7,1.4c-0.1,0.1,0.5,1,1,1.4c1,0.7,2.1,1.3,3.1,1.9
			C148.9,495,147.4,496.3,146.3,497.3z"/>
		<path fill="#FAF9F8" d="M197,493.9c0,0.5,0.1,1,0,1.5c-0.4,1.8-0.8,3.6-1.2,5.4c-2.2-1-4.6-1.7-6.4-3.1c-1.7-1.3-2.1-3.1,1-3.7
			c0.9-0.2,1.6-1.1,2.4-1.7c-0.8-0.4-1.5-1.1-2.3-1.3c-3.2-0.5-2.1-2.2-0.7-3.1c1.7-1,3.8-1.5,5.8-1.6c0.4,0,1.1,2.6,1.4,4.1
			C197.2,491.5,197,492.7,197,493.9z"/>
		<path fill="#FAF9F8" d="M197,449.9c0,1.5,0.4,3.2-0.1,4.4c-0.5,1.1-2.4,2.8-3.1,2.5c-2-0.7-3.7-2.3-5.5-3.5
			c0.9-0.8,1.9-1.5,2.8-2.3c0.6-0.5,1.1-1,1.7-1.5c-0.6-0.5-1.1-1-1.7-1.4c-0.8-0.5-1.7-1-2.6-1.5c1.7-1.2,3.2-2.7,5-3.4
			c0.8-0.3,2.9,0.8,3.3,1.8C197.3,446.4,196.9,448.2,197,449.9C196.9,449.9,197,449.9,197,449.9z"/>
		<path fill="#FAF9F8" d="M197,65.6c0,1,0.2,2,0,3c-0.3,1.5-1,4-1.5,4.1c-1.8,0-4-0.4-5.4-1.5c-1.3-1.1-3.7-3.5,0.7-4.3
			c0.7-0.1,1.2-0.9,1.8-1.4c-0.7-0.5-1.4-1.2-2.1-1.4c-3.2-0.4-2.2-2.1-0.7-3.1c1.8-1.2,4-1.9,6-2.7c0.6,2.4,1.2,4.9,1.9,7.3
			C197.4,65.5,197.2,65.6,197,65.6z"/>
		<path fill="#FAF9F8" d="M146.7,63c1.3,0.9,2.5,1.8,3.8,2.7c-1.9,1.4-3.7,3-5.8,4.2c-0.4,0.2-2.5-1.2-2.5-2
			c-0.3-3.5-0.3-7-0.1-10.4c0.2-3.3,2.6-2.7,4.3-1.6c1.7,1.1,3,2.9,4.4,4.4C149.5,61.1,148.1,62,146.7,63z"/>
		<path fill="#FAF9F8" d="M142,446.2c0-0.5-0.1-1,0-1.5c0.4-1.8,0.8-3.6,1.2-5.4c2,0.9,4.3,1.4,6,2.7c1.9,1.5,3,3.5-1,4.1
			c-0.7,0.1-1.4,1-2,1.5c0.8,0.5,1.5,1.2,2.3,1.3c3.1,0.4,2.4,2,0.8,3.1c-1.7,1-3.8,1.6-5.8,1.7c-0.4,0-1.2-2.6-1.5-4
			C141.8,448.5,142,447.3,142,446.2z"/>
		<path fill="#FAF9F8" d="M146.7,106.1c3.7,2.9,3.9,4.7,0.4,6.3c-3.2,1.5-5,0.5-5.1-3.1c-0.1-2.3-0.3-4.7,0.1-6.9
			c0.3-1.5,1.6-2.9,2.5-4.3c2.1,1.7,4.1,3.3,6.2,5C149.5,104,148.2,104.9,146.7,106.1z"/>
		<path fill="#FAF9F8" d="M112,493.8c0,0.5,0.1,1,0,1.5c-0.5,1.9-1.1,3.7-1.6,5.6c-2-1-4.2-1.8-5.9-3.1c-1.6-1.2-2.4-3,0.7-3.9
			c0.4-0.1,0.6-1.9,0.4-2.7c-0.2-0.8-1.2-1.3-1.8-2c1.9-1,3.8-2.3,5.8-3c0.5-0.2,2.2,1.3,2.4,2.2C112.2,490.1,112,492,112,493.8
			C112,493.8,112,493.8,112,493.8z"/>
		<path fill="#FAF9F8" d="M282,408.4c0,0.5,0.1,1,0,1.5c-0.4,1.9-0.8,3.7-1.3,5.6c-2.2-0.9-4.6-1.5-6.5-2.8c-2-1.4-3.5-3.4,0.9-3.7
			c0.6,0,1.1-0.9,1.6-1.4c-0.4-0.4-0.8-0.9-1.3-1.3c-0.6-0.7-1.2-1.4-1.9-2c1.8-1,3.5-2.3,5.4-2.9c0.7-0.2,2.6,1,2.8,1.8
			C282.2,404.7,281.9,406.6,282,408.4C282,408.4,282,408.4,282,408.4z"/>
		<path fill="#FAF9F8" d="M282,365.3c0,0.5,0.1,1,0,1.5c-0.4,1.8-0.8,3.7-1.2,5.5c-2.2-0.9-4.6-1.4-6.5-2.7
			c-1.9-1.3-3.6-3.4,0.8-3.7c0.6,0,1.1-0.9,1.7-1.4c-0.4-0.5-0.8-0.9-1.2-1.4c-0.7-0.8-1.5-1.6-2.2-2.4c1.8-0.9,3.6-2.2,5.6-2.6
			c0.8-0.2,2.5,1.2,2.9,2.2C282.3,361.9,282,363.7,282,365.3C282,365.3,282,365.3,282,365.3z"/>
		<path fill="#FAF9F8" d="M112,450.5c0,0.7,0.2,1.4,0,2c-0.5,1.8-1.2,3.6-1.8,5.4c-2.2-1.3-4.4-2.6-6.5-4c1-1.4,2.8-2.7,2.9-4.2
			c0.1-1.3-1.6-2.8-2.5-4.2c2-0.8,4-1.9,6.1-2.3c0.4-0.1,1.4,2.7,1.8,4.2C112.2,448.4,112,449.5,112,450.5z"/>
		<path fill="#FAF9F8" d="M197,108.4c0,0.8,0.1,1.7,0,2.5c-0.4,1.7-0.9,3.3-1.3,4.9c-2-0.6-4.3-0.8-5.9-1.8c-1.8-1.2-3.1-3.1,0.6-4
			c0.8-0.2,1.5-1.1,2.2-1.6c-0.8-0.4-1.8-0.7-2.2-1.3c-0.5-0.8-1.1-2.6-0.8-2.7c1.9-1.2,4-2.1,6-3.1c0.7,2.4,1.5,4.7,2.2,7.1
			C197.5,108.3,197.2,108.3,197,108.4z"/>
		<path fill="#FAF9F8" d="M229.4,498.4c-1.1-2.2-2.3-3.5-2.3-4.8c0.3-3.9,1-7.7,1.6-11.5c2.2,1.3,4.9,2.1,6.5,4
			c2.1,2.5-0.9,2.5-2.3,3.3c-0.3,0.2-0.4,1.5-0.2,2c0.6,1.1,1.5,1.9,2.3,2.9C233.5,495.4,232,496.5,229.4,498.4z"/>
		<path fill="#FAF9F8" d="M282,493.5c0,0.7,0.1,1.4,0,2c-0.4,1.8-1,3.6-1.4,5.3c-2.3-1-4.9-1.6-6.9-3.1c-1.3-1-2.8-3.6,1.1-3.8
			c0.7,0,1.3-0.7,1.9-1.1c-0.6-0.6-1.4-1.1-1.8-1.8c-0.4-0.8-0.8-2.5-0.5-2.7c2-1.1,4.1-1.8,6.2-2.7c0.5,1.6,1,3.3,1.4,4.9
			C282.2,491.5,282,492.5,282,493.5z"/>
		<path fill="#FAF9F8" d="M282,193.5c0,0.7,0.1,1.3,0,2c-0.4,1.8-0.9,3.6-1.4,5.3c-2.2-0.8-4.6-1.2-6.5-2.4
			c-1.7-1.1-3.4-3.1,0.7-3.5c0.7-0.1,1.3-0.8,1.9-1.2c-0.6-0.6-1.1-1.4-1.9-1.7c-3-1.2-1.7-3-0.2-3.9c1.7-1,4-1.3,6-1.9
			c0.7,2.4,1.3,4.8,2,7.2C282.4,193.4,282.2,193.4,282,193.5z"/>
		<path fill="#FAF9F8" d="M57,190.1c0-0.5-0.1-1,0-1.5c0.4-1.8,0.9-3.6,1.4-5.4c2.2,0.8,4.8,1.2,6.6,2.6c1.6,1.2,3.7,4-1.1,4.3
			c-0.5,0-1.5,0.8-1.4,1c0.2,0.7,0.7,1.2,1.1,1.8c0.6,0.7,1.2,1.4,1.8,2.1c-1.8,1-3.5,2.3-5.4,2.9c-0.7,0.2-2.6-1-2.8-1.8
			C56.8,194.1,57.1,192.1,57,190.1C57,190.1,57,190.1,57,190.1z"/>
		<path fill="#FAF9F8" d="M112,408.5c0,0.7,0.1,1.3,0,2c-0.3,1.7-0.7,3.4-1,5c-2.2-0.9-4.7-1.5-6.6-2.8c-1.7-1.2-2.3-3,0.8-3.9
			c0.3-0.1,0.5-1.9,0.2-2.7c-0.2-0.8-1.1-1.4-1.7-2.1c1.8-1,3.5-2.3,5.4-2.9c0.7-0.2,2.5,1,2.7,1.8
			C112.2,404.7,111.9,406.6,112,408.5C112,408.5,112,408.5,112,408.5z"/>
		<path fill="#FAF9F8" d="M57,446.3c0-0.5-0.1-1,0-1.5c0.5-1.9,1.1-3.8,1.6-5.7c2.1,0.8,4.5,1.2,6.2,2.6c1.4,1.1,4.3,3.8-0.8,4.4
			c-0.6,0.1-1.2,0.9-1.8,1.3c0.4,0.5,0.8,0.9,1.1,1.4c0.6,0.8,1.2,1.6,1.8,2.4c-2,1-3.9,2.2-6,3c-0.4,0.1-1.9-1.5-2.1-2.4
			C56.8,450,57,448.1,57,446.3z"/>
		<path fill="#FAF9F8" d="M57,404.5c0-0.7-0.1-1.4,0-2c0.4-1.8,0.9-3.6,1.4-5.4c2,0.7,4.3,0.9,5.8,2.1c1.5,1.2,5.7,3.8-0.4,4.9
			c-0.3,0.1-0.8,1.8-0.5,2.6c0.3,0.9,1.3,1.5,2.1,2.3c-2,1-3.8,2.2-5.9,2.8c-0.5,0.1-1.9-1.7-2.3-2.8C56.7,407.6,57,406,57,404.5z"
			/>
		<path fill="#FAF9F8" d="M57,489.6c0-0.8-0.2-1.7,0-2.5c0.6-1.8,1.5-3.4,2.2-5.1c2.3,1.6,4.7,3.1,7,4.7c-1.4,1.3-3.4,2.3-3.9,3.9
			c-0.7,1.9,5.7,1,2.7,4.5c-1.3,1.5-4,2-6.1,2.4c-0.4,0.1-1.4-2.8-1.9-4.4C56.8,492,57,490.8,57,489.6z"/>
		<path fill="#FAF9F8" d="M227,404.3c0-0.5-0.1-1,0-1.5c0.5-1.9,1.1-3.8,1.6-5.7c2.1,1.1,4.3,2,6.1,3.4c0.4,0.3-0.4,2.3-0.7,3.5
			c-0.2,0.9-0.8,2-0.6,2.8c0.2,0.9,1.2,1.6,1.8,2.4c-1.8,0.9-3.6,2.1-5.5,2.7c-0.6,0.2-2.3-1.2-2.5-2.1
			C226.8,408,227,406.1,227,404.3C227,404.3,227,404.3,227,404.3z"/>
		<path fill="#FAF9F8" d="M227,446.4c0-0.7-0.1-1.4,0-2c0.4-1.8,1-3.5,1.5-5.3c2,0.9,4.3,1.5,5.9,2.9c3.7,3.2-0.6,3.3-1.9,4.9
			c-2.1,2.5,5.9,1.5,2.1,4.8c-1.4,1.3-3.8,1.8-5.7,1.9c-0.5,0-1.4-2.7-1.8-4.3C226.8,448.5,227,447.4,227,446.4z"/>
		<path fill="#FAF9F8" d="M63,62.7c0.7,1.5,1.5,3,2.2,4.5c-2,0.9-3.9,2.2-6,2.6c-0.5,0.1-1.8-2.8-2.2-4.4c-0.4-1.9-0.1-4-0.1-6
			c0-2.2-0.2-5.2,3-4.1c2.5,0.8,4.4,3.4,6.6,5.2C65.3,61.2,64.1,62,63,62.7z"/>
		<path fill="#FAF9F8" d="M282,450.6c0,0.7,0.1,1.3,0,2c-0.4,1.8-0.9,3.5-1.4,5.3c-2.1-0.7-4.6-1-6.3-2.3c-1.4-1.2-4.6-4.1,0.9-4.6
			c0.5-0.1,1.5-0.8,1.4-1c-0.2-0.7-0.7-1.2-1.2-1.8c-0.6-0.7-1.2-1.4-1.8-2c2-1.2,4-2.6,6.2-3.6c0.3-0.1,1.9,1.3,2,2.2
			C282.1,446.6,281.9,448.6,282,450.6C282,450.6,282,450.6,282,450.6z"/>
		<path fill="#FAF9F7" d="M63.2,148c0.6,1.2,1.4,2.6,2.2,4.1c-2,1-3.9,2.2-6,2.7c-0.5,0.1-2.4-2.6-2.2-3.8c0.7-3.6-2.7-8.5,2-10.6
			c1.5-0.6,4.8,2.9,7.3,4.5C65.2,146,64.1,147.1,63.2,148z"/>
		<path fill="#FAF9F8" d="M59.3,370.7c-1.1-2.6-2.4-4.2-2.1-5.5c0.7-3.7-2.8-8.8,2.3-10.8c1.5-0.6,4.6,2.8,6.9,4.4
			c-0.7,0.8-1.4,1.4-2,2.3c-0.5,0.8-1.4,1.9-1.2,2.7c0.2,0.9,1.4,1.5,2.2,2.2C63.8,367.2,62.2,368.4,59.3,370.7z"/>
		<path fill="#FAF9F8" d="M276.1,150.4c-1-1.5-1.8-2.7-2.7-4c2.1-1.1,4.1-2.4,6.3-3.2c0.3-0.1,2,2.1,2.2,3.3c0.4,2.6,0.2,5.3,0,7.9
			c-0.1,1.1-1,3.2-1.3,3.2c-2-0.2-4.1-0.5-5.8-1.5c-1.2-0.7-1.7-2.5-2.6-3.9C273.6,151.6,275,150.9,276.1,150.4z"/>
		<path fill="#FAF9F8" d="M62.6,105.7c1,1.5,1.9,2.9,2.7,4.2c-1.7,1-3.2,2.2-5,2.9c-0.8,0.3-2.9-0.5-2.9-0.9
			c-0.1-4.4,0-8.8,0.3-13.2c0-0.2,2.3-0.5,3.6-0.4c0.8,0,1.7,0.5,2.2,1c1.2,1.3,2.1,2.8,3.1,4.3C65.3,104.3,64,105,62.6,105.7z"/>
		<path fill="#FAF9F8" d="M233.4,63.5c0.4,0.5,1.3,1.7,2.2,2.9c-2.2,1.2-4.5,2.3-6.7,3.5c-0.7-1.5-1.6-2.9-1.9-4.4
			c-0.3-1.9-0.4-4,0-6c0.3-1.6,1.5-3,2.3-4.5c2.1,1.2,4.4,2.1,6.1,3.6C235.9,59.1,234.2,61.7,233.4,63.5z"/>
		<path fill="#FAF9F8" d="M275.9,108.3c-0.8-1.3-1.6-2.6-2.4-4c2.1-1.1,4.2-2.2,6.3-3.3c0.7,1.5,1.9,3,2.1,4.6
			c0.4,2.1,0,4.3,0.1,6.4c0.1,2.6-0.7,4.8-3.4,3.7c-2.4-1-4.3-3.4-6.4-5.2C273.6,109.7,274.9,108.9,275.9,108.3z"/>
		<path fill="#FAF9F8" d="M105.6,64.6c-0.4-0.6-1.4-1.8-2.3-3c2.2-1.2,4.4-2.3,6.6-3.5c0.7,1.4,1.7,2.8,2,4.3c0.3,1.9,0.4,4,0,5.9
			c-0.3,1.6-1.4,3.1-2.1,4.7c-2.2-1.2-4.5-2.1-6.3-3.7C103.1,68.9,104.8,66.3,105.6,64.6z"/>
		<path fill="#FAF9F8" d="M106.2,150.5c-0.9-1.5-1.7-2.7-2.4-3.9c2-1.2,4-2.4,6.1-3.3c0.2-0.1,1.9,2.2,2,3.5c0.3,2.4,0.4,5,0,7.4
			c-0.2,1.4-2,3.8-2.3,3.7c-2.2-0.7-4.1-2.1-6.1-3.2c0.9-1.3,1.8-2.5,2.6-3.8C106.2,150.5,106.3,150.2,106.2,150.5z"/>
		<path fill="#FAF9F8" d="M233.4,148.3c0.6,0.8,1.5,1.9,2.4,3c-2.2,1.2-4.3,2.5-6.6,3.5c-0.2,0.1-1.8-2.2-2-3.5
			c-0.3-2.3-0.4-4.7,0-6.9c0.2-1.5,1.3-2.8,2-4.3c2.1,1.3,4.4,2.4,6.2,4C235.6,144.4,234.1,146.7,233.4,148.3z"/>
		<path fill="#FAF9F8" d="M233.4,106.2c0.7,0.9,1.5,2,2.4,3.1c-2,1.2-4,2.6-6.2,3.5c-0.4,0.2-2.2-1.9-2.4-3.1c-0.4-2.4-0.4-5,0-7.4
			c0.2-1.5,1.4-2.8,2.1-4.2c2.1,1.3,4.3,2.4,6.1,4.1C235.6,102.4,234.1,104.8,233.4,106.2z"/>
		<path fill="#FAF9F8" d="M276.3,65.4c-1.1-1.5-2-2.7-2.9-3.9c2.1-1.2,4.1-2.5,6.3-3.3c0.3-0.1,2,2.4,2.3,3.8c0.4,2.4,0.2,5,0,7.4
			c-0.1,1.2-1,3.2-1.3,3.2c-2-0.2-4.2-0.5-5.8-1.6c-1.2-0.8-1.6-2.7-2.4-4.1C273.7,66.4,275,65.9,276.3,65.4z"/>
		<path fill="#FAF9F8" d="M106,107.9c-0.7-0.9-1.5-2-2.4-3c2-1.3,3.9-2.6,5.9-3.8c0.8,1.3,2.1,2.5,2.4,3.9c0.4,1.9,0.4,4,0,6
			c-0.4,1.8-1.5,3.4-2.3,5.1c-2.1-1.1-4.3-2-6-3.5C103.3,112.3,105.1,109.6,106,107.9z"/>
		<path fill="#FAF9F8" d="M142,404.5c0-0.7-0.1-1.3,0-2c0.3-1.7,0.6-3.4,1-5.1c2.1,0.8,4.4,1.2,6.2,2.5c1.8,1.3,3.4,3.5-0.8,4.2
			c-0.7,0.1-1.3,0.7-1.9,1.1c0.5,0.6,1.1,1.1,1.6,1.7c0.7,0.7,1.5,1.4,2.3,2.2c-1.6,1-3.2,2.4-4.9,2.8c-0.9,0.2-2.9-1-3.2-1.9
			C141.7,408.3,142.1,406.3,142,404.5C142,404.5,142,404.5,142,404.5z"/>
		<path fill="#FAF9F8" d="M197,150.8c0,0.7,0.1,1.4,0,2c-0.5,1.7-1.1,3.4-1.7,5.1c-2-0.7-4.2-1-5.8-2.2c-1.7-1.2-2.4-3,0.7-3.8
			c0.9-0.2,1.6-1,2.4-1.5c-0.7-0.5-1.4-1.3-2.2-1.4c-3.3-0.5-2.2-2.1-0.7-3.1c1.8-1.2,4-1.8,6.1-2.7c0.6,2.5,1.2,4.9,1.7,7.4
			C197.4,150.7,197.2,150.7,197,150.8z"/>
		<path fill="#FAF9F8" d="M197.6,408.1c-0.7,2.3-1.4,4.5-2.1,6.8c-2.1-0.7-4.4-1-6.1-2.2c-1.7-1.2-2.2-3,0.9-3.7
			c0.8-0.2,1.5-1,2.3-1.6c-0.7-0.5-1.4-1.2-2.2-1.3c-3.3-0.5-2-2.3-0.6-3.1c1.7-1,5.1-2.2,5.6-1.5
			C196.7,403,196.9,405.7,197.6,408.1z"/>
		<path fill="#FAF9F8" d="M143.4,138.3c3.3,2.8,5.3,4.4,7.1,6.2c0.1,0.1-1,1.7-1.7,2.4c-0.6,0.6-1.5,0.8-2.3,1.3
			c0.5,0.6,1.1,1.1,1.6,1.7c0.7,0.7,1.5,1.3,2.2,2c-1.6,1-3.1,2.3-4.9,2.9c-0.8,0.3-3-0.7-3.1-1.3c-0.3-3.9-0.2-7.9-0.1-11.9
			C142.2,140.8,142.8,139.9,143.4,138.3z"/>
	</g>
</g>
</svg>
